<svg width="73" height="73" viewBox="0 0 73 73" fill="none" xmlns="http://www.w3.org/2000/svg">
<circle cx="36.8057" cy="36.447" r="36" fill="#FFD8FF"/>
<path fill-rule="evenodd" clip-rule="evenodd" d="M37.4409 27.84C38.7459 27.84 40.0519 27.832 41.3569 27.848C41.6054 27.8526 41.85 27.9109 42.0739 28.019C44.5199 29.2842 46.6624 31.0648 48.3539 33.238C50.7449 36.0661 52.4615 39.4008 53.3739 42.99C53.9907 45.0644 53.9636 47.2773 53.2959 49.336C52.4622 51.4601 50.8286 53.1725 48.7459 54.105C46.5628 55.1835 44.1943 55.8365 41.7669 56.029C39.7015 56.2237 37.6275 56.3145 35.5529 56.301C32.5672 56.3517 29.6007 55.8138 26.823 54.718C24.5452 53.9007 22.6999 52.1889 21.7139 49.979C20.9991 48.2528 20.8129 46.3532 21.1789 44.521C22.3057 38.1647 25.9364 32.5267 31.257 28.871C32.2232 28.0954 33.4501 27.72 34.685 27.822C35.6027 27.8751 36.5225 27.8812 37.4408 27.84H37.4409ZM38.0994 39.233C38.1554 40.5245 37.2849 41.6733 36.0264 41.969C35.3386 42.0656 34.6436 42.1024 33.9494 42.079C33.3534 42.0538 32.8032 42.3974 32.5644 42.9439C32.3003 43.5021 32.4452 44.1682 32.9174 44.566C34.7801 46.4326 36.6467 48.2993 38.5174 50.166C38.7736 50.4526 39.1368 50.6206 39.5211 50.63C39.9054 50.6395 40.2764 50.4897 40.5464 50.216C40.8278 49.9438 40.9831 49.5667 40.9752 49.1753C40.9672 48.7839 40.7967 48.4135 40.5044 48.153C40.0804 47.718 39.6464 47.291 39.2144 46.864C38.4914 46.149 37.7655 45.437 37.0025 44.686C39.3521 43.8952 40.9526 41.7146 41.0025 39.236C41.4484 39.236 41.8624 39.242 42.2755 39.236C42.7835 39.227 43.1225 38.927 43.1115 38.509C43.0994 38.3055 43.0049 38.1158 42.8498 37.9837C42.6945 37.8515 42.4922 37.7885 42.2894 37.809C41.8745 37.8 41.4585 37.8199 41.0445 37.801C40.9375 37.801 40.7644 37.717 40.7445 37.637C40.4224 36.6126 39.8397 35.6895 39.0535 34.958H42.1635C42.7575 34.958 43.1095 34.698 43.1155 34.258C43.1215 33.818 42.7735 33.532 42.1875 33.532C39.4596 33.532 36.7312 33.532 34.0025 33.532C33.4641 33.4808 32.943 33.7376 32.6557 34.1958C32.3684 34.654 32.3641 35.235 32.6446 35.6973C32.9251 36.1597 33.4425 36.4242 33.9815 36.381C34.4705 36.3889 34.9615 36.3579 35.4495 36.386C36.4069 36.4396 37.2722 36.9735 37.7496 37.805H37.1795C35.8895 37.805 34.5995 37.805 33.3095 37.805C32.7855 37.805 32.4525 38.075 32.4365 38.494C32.4206 38.913 32.7775 39.228 33.3095 39.23C34.1845 39.23 35.0595 39.23 35.9345 39.23L38.0994 39.233Z" fill="#DD50F2"/>
<path fill-rule="evenodd" clip-rule="evenodd" d="M41.6846 25.686H33.1706C32.9816 23.529 31.6166 22.149 30.0096 20.97C29.1608 20.3764 28.2768 19.8348 27.3626 19.348C26.6226 18.932 26.5126 18.448 27.1206 17.848C27.7896 17.2543 28.613 16.8621 29.4956 16.717C31.5966 16.3078 33.763 16.3792 35.8325 16.926C37.3196 17.254 38.8176 17.537 40.3186 17.789C41.6494 17.926 42.9942 17.7832 44.2666 17.37C45.1826 17.14 46.0776 16.826 46.9776 16.534C47.4916 16.368 47.8246 16.444 48.0186 16.813C48.2127 17.182 48.1037 17.518 47.6706 17.831C45.9075 19.0431 44.349 20.5284 43.0535 22.231C42.27 23.2245 41.7941 24.4255 41.6846 25.686Z" fill="#DD50F2"/>
</svg>
