<svg width="19" height="13" viewBox="0 0 19 13" fill="none" xmlns="http://www.w3.org/2000/svg">
<path fill-rule="evenodd" clip-rule="evenodd" d="M9.86066 12.7501C7.86308 12.7657 5.91039 12.1578 4.27466 11.0111C2.65082 9.90249 1.39844 8.33059 0.680664 6.5001C1.39886 4.6696 2.65112 3.09747 4.27466 1.98811C5.9108 0.842326 7.86328 0.234843 9.86066 0.250102C11.8521 0.233119 13.7987 0.840968 15.4267 1.98811C17.0412 3.10212 18.2858 4.6734 19.0007 6.5001C18.2863 8.32708 17.0416 9.89849 15.4267 11.0121C13.799 12.1598 11.8522 12.7677 9.86067 12.7501H9.86066ZM9.86066 2.32011C8.75037 2.3072 7.68375 2.75209 6.91167 3.55011C6.11282 4.32211 5.66751 5.38926 5.68066 6.5001C5.66763 7.61091 6.11292 8.67802 6.91167 9.4501C7.68373 10.2481 8.75037 10.693 9.86067 10.6801C10.9655 10.695 12.0267 10.2494 12.7897 9.4501C13.5776 8.6723 14.0148 7.60717 14.0007 6.5001C14.0149 5.39299 13.5777 4.32782 12.7896 3.55009C12.0267 2.75082 10.9655 2.30519 9.86066 2.32009V2.32011ZM9.84067 9.0001C9.17944 9.01188 8.54266 8.7503 8.08066 8.27711C7.60684 7.80876 7.34648 7.16616 7.36066 6.5001C7.34637 5.83399 7.60675 5.19137 8.08067 4.72309C8.54266 4.2499 9.17944 3.98832 9.84067 4.0001C10.5066 3.99122 11.1479 4.25198 11.6187 4.72311C12.1041 5.18525 12.3733 5.82995 12.3607 6.5001C12.3732 7.17024 12.104 7.81489 11.6187 8.27711C11.1479 8.74823 10.5066 9.00898 9.84067 9.0001Z" fill="#C6CBD4"/>
</svg>
