<svg width="29" height="42" viewBox="0 0 29 42" fill="none" xmlns="http://www.w3.org/2000/svg">
<path fill-rule="evenodd" clip-rule="evenodd" d="M15.2389 0.98999C17.7274 1.4162 19.7665 3.20227 20.5169 5.61298C21.1122 7.5885 20.7372 9.72919 19.5058 11.3846C18.2745 13.0402 16.3321 14.015 14.2689 14.013C11.2569 13.9978 8.63113 11.96 7.86888 9.04596C7.19949 6.00177 8.71777 2.89807 11.5319 1.55798C12.0489 1.31897 12.6089 1.17395 13.1499 0.984985L15.2389 0.98999Z" fill="#345FB4"/>
<path fill-rule="evenodd" clip-rule="evenodd" d="M4.21701 39.401C4.21701 37.974 4.17601 36.781 4.24602 35.595C4.33415 35.2498 4.56009 34.9559 4.87102 34.782C6.44315 33.7882 7.39778 32.0594 7.40143 30.1995C7.40508 28.3396 6.45723 26.607 4.88902 25.6071C4.5751 25.4388 4.34329 25.15 4.24702 24.8071C4.17603 23.5831 4.21703 22.3521 4.21703 21.0831C8.34102 20.465 11.754 21.4111 14.489 24.592C17.046 20.972 20.767 20.9141 24.739 21.092C24.739 22.397 24.764 23.655 24.717 24.9091C24.6536 25.188 24.4835 25.431 24.243 25.5861C22.7041 26.6016 21.7777 28.3217 21.7765 30.1654C21.7753 32.0092 22.6995 33.7305 24.237 34.748C24.4968 34.9335 24.6703 35.2164 24.718 35.532C24.769 36.8 24.741 38.071 24.741 39.519C20.949 38.431 17.358 38.23 14.351 41.414C11.446 38.69 8.03702 38.41 4.21701 39.401Z" fill="#345FB4"/>
<path fill-rule="evenodd" clip-rule="evenodd" d="M27.4352 25.487C26.3352 25.528 26.0352 24.953 26.1012 23.914C26.1802 22.6841 26.1102 21.4441 26.1012 20.208C26.0688 20.0867 26.0214 19.9698 25.9602 19.8601C21.8782 19.6601 17.7382 19.307 14.4512 22.6891C14.0132 22.3441 13.6252 22.0311 13.2312 21.7291C10.3442 19.5151 7.01024 19.4871 3.62323 19.8291C3.37424 19.8541 3.01123 20.3571 2.98323 20.6631C2.87691 21.701 2.85583 22.7458 2.92024 23.7871C3.00523 24.9611 2.57922 25.5871 1.35922 25.6401C1.35922 24.2591 1.28622 22.8701 1.37523 21.4921C1.41197 19.0934 3.35339 17.1608 5.75224 17.1351C11.7362 17.0261 17.7242 17.0491 23.7102 17.0771C25.4883 17.3076 26.9458 18.5995 27.3882 20.3371C27.5167 22.0508 27.5324 23.7712 27.4352 25.487H27.4352Z" fill="#345FB4"/>
<path fill-rule="evenodd" clip-rule="evenodd" d="M0.523438 29.915C0.65097 29.3062 0.830292 28.7093 1.05945 28.131C1.4053 27.1087 2.39096 26.4431 3.46845 26.504C4.63277 26.5649 5.60258 27.418 5.81145 28.565C6.01082 29.6443 5.99927 30.752 5.77744 31.827C5.53313 33.0013 4.51723 33.8561 3.31845 33.896C2.08781 33.8078 1.06863 32.9066 0.830444 31.696C0.686432 31.188 0.645447 30.649 0.523438 29.915Z" fill="#345FB4"/>
<path fill-rule="evenodd" clip-rule="evenodd" d="M28.5967 30.451C28.5087 31.0745 28.3513 31.6863 28.1277 32.275C27.752 33.2405 26.8248 33.8788 25.7887 33.8849C24.7546 33.8596 23.8448 33.1953 23.5057 32.218C22.929 30.9818 22.9018 29.5594 23.4307 28.302C23.8117 27.1682 24.9011 26.4266 26.0957 26.488C27.2768 26.7715 28.1911 27.7067 28.4477 28.894C28.5217 29.309 28.5317 29.735 28.5967 30.451Z" fill="#345FB4"/>
</svg>
