<svg width="26" height="19" viewBox="0 0 26 19" fill="none" xmlns="http://www.w3.org/2000/svg">
<path fill-rule="evenodd" clip-rule="evenodd" d="M17.2297 1.20486C16.8742 0.86853 16.3159 0.875 15.9682 1.21945C15.6205 1.56393 15.6088 2.12213 15.9417 2.48087L22.4757 9.01486H0.911743C0.414703 9.01486 0.0117493 9.41782 0.0117493 9.91486C0.00787354 10.416 0.410675 10.8255 0.911743 10.8299H22.4757L15.9417 17.3549C15.5931 17.7138 15.5931 18.2849 15.9417 18.6439C16.1111 18.8177 16.3436 18.9157 16.5862 18.9157C16.8289 18.9157 17.0613 18.8177 17.2307 18.6439L25.3117 10.5609C25.4848 10.3937 25.5825 10.1635 25.5825 9.92285C25.5825 9.68228 25.4848 9.452 25.3117 9.28485L17.2297 1.20486Z" fill="white"/>
</svg>
