<svg width="127" height="64" viewBox="0 0 127 64" fill="none" xmlns="http://www.w3.org/2000/svg">
<path fill-rule="evenodd" clip-rule="evenodd" d="M33.1721 0.125977L20.6891 0.139969C17.0225 0.139969 14.6992 1.97331 13.7191 5.63997L13.4301 6.72597C13.234 7.40584 13.1277 8.10849 13.1141 8.81598C13.1141 11.0886 14.5575 12.225 17.4442 12.225H21.2372C22.5478 12.225 23.2032 12.619 23.2032 13.407C23.2007 13.5797 23.1731 13.7512 23.1212 13.916C22.8278 15.0433 21.9022 15.607 20.3441 15.607H11.0511L9.91016 19.827H23.0802C26.7468 19.827 29.0748 17.9893 30.0641 14.314L30.3531 13.228C30.5407 12.5515 30.6415 11.8539 30.6532 11.152C30.6532 8.8793 29.2098 7.74297 26.3231 7.74297H22.5292C21.2278 7.74297 20.5725 7.34897 20.5632 6.56097C20.5656 6.38823 20.5933 6.21675 20.6452 6.05197C20.9478 4.92464 21.8782 4.36098 23.4362 4.36098H32.0422L33.1721 0.125977ZM51.8372 14.313C50.1232 18.0796 46.2418 19.963 40.1931 19.963C34.4378 19.963 31.5555 18.2583 31.5461 14.849C31.557 14.1321 31.6647 13.42 31.8661 12.732L32.1962 11.454C33.4882 6.6333 37.5575 4.22298 44.4041 4.22298C50.1688 4.22298 53.0511 5.92297 53.0511 9.32297C53.0511 9.49698 53.0465 9.67097 53.0372 9.84497H44.7612C44.8537 9.51086 44.9044 9.16656 44.9122 8.81998C44.9122 7.95331 44.4495 7.51997 43.5242 7.51997C42.2868 7.51997 41.4618 8.29898 41.0492 9.85698L39.8492 14.325C39.7492 14.6551 39.6937 14.9971 39.6842 15.342C39.6842 16.222 40.1468 16.662 41.0722 16.662C42.3095 16.662 43.1388 15.8783 43.5602 14.311L51.8372 14.313ZM69.5161 19.826H62.4911L65.1852 9.82097C65.2865 9.48598 65.3424 9.13887 65.3512 8.78897C65.3512 7.91765 64.8878 7.48198 63.9612 7.48198C62.7138 7.48198 61.8805 8.26631 61.4612 9.83498L58.7772 19.827H51.7312L57.0101 0.126968H64.0491L62.7841 4.88397C64.2307 4.38875 65.7563 4.16499 67.2841 4.22397C70.6841 4.22397 72.3842 5.53897 72.3842 8.16898C72.3687 8.95145 72.2487 9.72833 72.0272 10.479L69.5161 19.826ZM93.3401 12.719C92.0502 17.5483 87.9825 19.963 81.1371 19.963C75.3372 19.963 72.4548 18.2353 72.4901 14.78C72.5091 14.0821 72.6152 13.3894 72.8062 12.718L73.1362 11.453C74.4282 6.63231 78.4975 4.22197 85.3441 4.22197C91.1088 4.22197 93.9911 5.9313 93.9911 9.34998C93.9806 10.061 93.8743 10.7673 93.6752 11.45L93.3401 12.719ZM84.5042 14.332L85.7041 9.86397C85.7959 9.53244 85.8466 9.19087 85.8551 8.84697C85.8551 7.96698 85.3925 7.52698 84.4671 7.52698C83.2298 7.52698 82.4048 8.30597 81.9922 9.86397L80.7921 14.332C80.6922 14.6621 80.6367 15.0041 80.6272 15.349C80.6272 16.229 81.0898 16.669 82.0152 16.669C83.2531 16.6656 84.0828 15.8866 84.5042 14.332ZM114.982 12.719C113.69 17.5483 109.621 19.963 102.774 19.963C96.9742 19.963 94.0918 18.2353 94.1272 14.78C94.1461 14.0821 94.2522 13.3894 94.4432 12.7179L94.7731 11.453C96.0652 6.63231 100.134 4.22197 106.981 4.22197C112.746 4.22197 115.628 5.9313 115.628 9.34998C115.618 10.061 115.511 10.7673 115.312 11.45L114.982 12.719ZM106.143 14.332L107.343 9.86397C107.435 9.53244 107.486 9.19087 107.494 8.84697C107.494 7.96698 107.031 7.52698 106.106 7.52698C104.869 7.52698 104.044 8.30597 103.631 9.86397L102.431 14.332C102.331 14.6621 102.276 15.0041 102.266 15.349C102.266 16.229 102.729 16.669 103.654 16.669C104.891 16.6656 105.721 15.8866 106.143 14.332ZM121.485 19.832H114.446L119.725 0.131973H126.764L121.485 19.832Z" fill="white"/>
<path fill-rule="evenodd" clip-rule="evenodd" d="M33.1334 63.0939H0.609375L8.06139 35.3329H20.8934L10.0854 27.7329H42.6094L40.5864 35.3329H23.1644L21.4644 41.6249H36.4154L34.3914 49.2009H19.4374L17.7594 55.5189H35.1814L33.1334 63.0939ZM75.9474 63.0939L59.5614 63.0689L53.4414 54.7289L51.1954 63.0939H36.0954L43.5474 35.3329H56.3784L45.5704 27.7329H73.0104C78.1924 27.7329 80.7834 29.7742 80.7834 33.8569C80.76 35.1257 80.5776 36.3865 80.2404 37.6099L79.3764 40.7959C77.5997 47.4299 73.4294 50.7222 66.8654 50.6729L75.9474 63.0939ZM64.7194 39.2079C64.8268 38.8051 64.8849 38.3907 64.8924 37.9739C64.8924 36.2139 63.535 35.3339 60.8204 35.3339H58.6484L56.5484 43.1069H58.7254C62.0141 43.1062 64.012 41.8066 64.7194 39.2079ZM120.71 40.8009C118.95 47.3882 114.78 50.6819 108.199 50.6819H95.8604L92.5254 63.0939H77.4254L84.8774 35.3329H97.7094L86.9014 27.7329H114.341C119.523 27.7329 122.114 29.7749 122.114 33.8589C122.091 35.1283 121.909 36.3898 121.571 37.6139L120.71 40.8009ZM106.052 39.2079C106.16 38.8051 106.218 38.3907 106.225 37.9739C106.225 36.2139 104.868 35.3339 102.153 35.3339H99.9814L97.8814 43.1069H100.053C103.345 43.1062 105.344 41.8066 106.052 39.2079Z" fill="white"/>
</svg>
