<svg width="375" height="384" viewBox="0 0 375 384" fill="none" xmlns="http://www.w3.org/2000/svg">
<mask id="mask0_1_7" style="mask-type:alpha" maskUnits="userSpaceOnUse" x="0" y="0" width="375" height="385">
<rect width="375" height="385" fill="white"/>
</mask>
<g mask="url(#mask0_1_7)">
<ellipse opacity="0.2" cx="186.123" cy="341.772" rx="167.424" ry="8.99" fill="#71ABDE"/>
<path fill-rule="evenodd" clip-rule="evenodd" d="M170.563 206.055C170.563 206.055 183.4 203.972 189.789 206.272C194.412 207.935 199.961 211.904 201.449 223.895C201.449 223.895 186.165 228.395 170.564 228.543C170.563 228.544 168.163 214.523 170.563 206.055Z" fill="#F3AE92"/>
<path opacity="0.5" fill-rule="evenodd" clip-rule="evenodd" d="M182.163 227.728C182.575 224.188 182.943 218.219 181.363 214.613C180.063 211.642 175.715 209.175 170.044 208.342C168.552 216.824 170.557 228.542 170.557 228.542C174.438 228.489 178.313 228.217 182.163 227.728H182.163Z" fill="#EB7C74"/>
<path opacity="0.2" fill-rule="evenodd" clip-rule="evenodd" d="M189.789 206.272C186.683 205.379 183.449 205.018 180.223 205.203C183.406 205.344 193.536 207.791 196.473 214.547C197.774 217.744 198.698 221.083 199.224 224.495C200.642 224.131 201.449 223.895 201.449 223.895C199.959 211.904 194.41 207.936 189.789 206.272Z" fill="white"/>
<path fill-rule="evenodd" clip-rule="evenodd" d="M75.079 220.617C69.115 218.793 69.437 218.475 63.938 216.486C58.439 214.497 57.726 214.286 52.993 212.527C48.2601 210.768 31.5 208.465 24.0761 230.249C16.4241 252.698 24.947 260.023 29.9511 263.735C37.719 269.498 55.681 276.027 60.8811 278.155C60.88 278.155 50.6919 241.34 75.079 220.617Z" fill="#F29297"/>
<path fill-rule="evenodd" clip-rule="evenodd" d="M75.079 220.617C69.115 218.793 69.437 218.475 63.938 216.486C58.439 214.497 57.726 214.286 52.993 212.527C48.2601 210.768 31.5 208.465 24.0761 230.249C16.4241 252.698 24.947 260.023 29.9511 263.735C37.719 269.498 55.681 276.027 60.8811 278.155C60.88 278.155 50.6919 241.34 75.079 220.617Z" fill="#F29297"/>
<path fill-rule="evenodd" clip-rule="evenodd" d="M73.8529 220.995C65.8529 218.852 54.9769 214.501 51.1938 213.556C47.4108 212.611 41.7358 212.893 38.6149 215.542C35.4939 218.191 43.1699 215.513 52.3419 218.634C61.5139 221.755 65.376 223.62 68.4309 224.792C71.4858 225.964 73.8529 220.995 73.8529 220.995Z" fill="#F5A9A7"/>
<path opacity="0.5" fill-rule="evenodd" clip-rule="evenodd" d="M48.0499 240.173C42.6329 237.71 36.7269 235.235 33.2499 231.36C26.1929 223.495 31.7609 217.16 36.1659 214.06C31.5529 216.633 27.0599 221.493 24.0759 230.249C16.424 252.698 24.9469 260.023 29.95 263.735C37.719 269.498 55.6809 276.027 60.881 278.155C60.881 278.155 56.5079 262.348 60.353 245.619C56.111 243.795 51.9969 241.967 48.0499 240.173Z" fill="#EC6469"/>
<path opacity="0.5" fill-rule="evenodd" clip-rule="evenodd" d="M30.528 218.635C27.6161 222.032 25.4205 225.983 24.073 230.25C16.421 252.699 24.944 260.024 29.947 263.736C37.7161 269.499 55.678 276.028 60.8781 278.156C59.4813 272.407 58.7764 266.511 58.778 260.594C50.3573 257.222 42.2506 253.113 34.5521 248.316C18.261 237.669 29.575 220.06 30.528 218.635Z" fill="#E73555"/>
<path fill-rule="evenodd" clip-rule="evenodd" d="M95.367 288.19C94.8294 288.921 93.9552 289.326 93.0499 289.264C91.0289 289.23 87.0039 287.273 76.699 284.025C68.4139 281.414 63.221 280.372 61.668 278.983C57.799 275.523 52.992 262.521 56.532 246.198C59.842 230.939 69.882 222.838 73.332 221.222C76.157 219.899 79.2111 220.176 84.995 221.9C88.4948 222.942 92.0581 223.758 95.6628 224.341C97.719 224.675 99.688 224.917 101.547 225.088C106.442 225.536 105.535 227.361 105.535 227.361C105.535 227.361 88.645 233.656 84.78 252.07C79.912 275.259 95.367 288.19 95.367 288.19Z" fill="#16A461"/>
<path fill-rule="evenodd" clip-rule="evenodd" d="M73.853 220.996C73.678 221.065 73.5031 221.14 73.329 221.222C71.5349 222.174 69.885 223.377 68.4291 224.793C75.8484 227.735 83.442 230.216 91.1666 232.224C91.167 232.224 95.5129 231.808 98.8199 231.119C100.001 230.283 101.105 229.598 102.063 229.055C101.137 228.587 100.144 228.266 99.119 228.101C90.8 226.313 78.932 222.618 73.853 220.996Z" fill="#3EC664"/>
<path fill-rule="evenodd" clip-rule="evenodd" d="M57.022 244.242C56.851 244.886 56.678 245.525 56.532 246.197C52.992 262.52 57.799 275.522 61.668 278.983C63.221 280.372 68.4149 281.415 76.699 284.025C87.004 287.273 91.0289 289.231 93.0499 289.264C93.9552 289.326 94.8293 288.921 95.3669 288.19C95.3669 288.19 81.356 276.45 84.231 255.295C74.782 251.807 65.6019 248.016 57.022 244.242Z" fill="#16935D"/>
<path fill-rule="evenodd" clip-rule="evenodd" d="M93.051 289.263C93.9562 289.325 94.8303 288.92 95.3679 288.189C91.302 284.375 88.1881 279.661 86.2771 274.424L78.3771 267.854C78.3771 267.854 67.566 264.459 55.326 259.143C55.6471 269.127 58.899 276.502 61.671 278.981C63.224 280.37 68.418 281.412 76.702 284.023C87.005 287.272 91.03 289.23 93.051 289.263Z" fill="#0E7F4C"/>
<path fill-rule="evenodd" clip-rule="evenodd" d="M70.421 251.357C73.926 230.623 92.78 224.724 95.093 224.24C91.9421 223.707 88.824 222.997 85.7529 222.114H85.739C82.577 222.463 66.382 229.814 63.459 248.394C60.626 266.394 67.844 279.456 70.386 282.127C72.233 282.661 74.335 283.276 76.699 284.02C77.874 284.391 78.957 284.741 79.975 285.077C79.975 285.077 67.0541 271.274 70.421 251.357Z" fill="#FFD348"/>
<path fill-rule="evenodd" clip-rule="evenodd" d="M81.8871 223.486C79.6627 224.581 77.5671 225.92 75.639 227.479C78.0331 228.325 80.667 229.209 83.412 230.053C85.5836 228.432 87.9235 227.05 90.391 225.931C87.4811 225.138 84.5481 224.286 81.8871 223.486Z" fill="#FFE568"/>
<g style="mix-blend-mode:multiply" opacity="0.1">
<path fill-rule="evenodd" clip-rule="evenodd" d="M79.9711 285.081H79.9771C79.9771 285.081 67.0541 271.274 70.421 251.358C70.4981 250.905 70.59 250.468 70.681 250.03C68.3203 249.069 65.9907 248.103 63.692 247.13C63.61 247.55 63.527 247.971 63.459 248.404C60.626 266.404 67.844 279.466 70.386 282.137L70.402 282.143L71.551 282.476L71.975 282.6L72.968 282.892L73.4921 283.048C73.8421 283.148 74.202 283.262 74.5661 283.372L75.057 283.52C75.59 283.684 76.135 283.852 76.698 284.029C77.292 284.217 77.8619 284.399 78.411 284.576C78.9601 284.753 79.4701 284.915 79.9711 285.081Z" fill="#E85D1C"/>
</g>
<g style="mix-blend-mode:multiply" opacity="0.3">
<path fill-rule="evenodd" clip-rule="evenodd" d="M78.415 284.572C78.942 284.741 79.446 284.906 79.937 285.072L79.973 285.083H79.979C75.1465 279.38 71.8866 272.514 70.522 265.165C68.359 264.383 65.853 263.447 63.1379 262.377C64.3379 272.963 68.5649 280.218 70.3879 282.134H70.3979L71.5439 282.466H71.554L71.859 282.555C72.3176 282.688 72.7903 282.828 73.277 282.973L73.495 283.038L74.556 283.358H74.566L75.057 283.506C75.589 283.669 76.1331 283.837 76.6949 284.014C77.2889 284.202 77.8589 284.384 78.408 284.561L78.415 284.572Z" fill="#E85D1C"/>
</g>
<path fill-rule="evenodd" clip-rule="evenodd" d="M275.691 201.566C275.691 201.566 272.606 200.454 261.076 204.925C249.546 209.396 182.009 232.852 105.537 227.36C105.537 227.36 89.7709 225.2 80.1229 247.418C70.475 269.636 89.2279 285.367 89.2279 285.367C89.2279 285.367 115.473 300.348 178.821 303.286C239.752 306.112 269.142 299.286 282.048 295.986C295.44 292.563 300.03 289.833 300.812 288.108C301.558 286.453 275.691 201.566 275.691 201.566Z" fill="#FFD348"/>
<g style="mix-blend-mode:multiply" opacity="0.1">
<path fill-rule="evenodd" clip-rule="evenodd" d="M154.119 270.711C130.578 270.647 103.186 262.687 78.2319 253.038C73.5909 272.238 89.2229 285.368 89.2229 285.368C89.2229 285.368 115.469 300.349 178.816 303.287C239.747 306.113 269.137 299.287 282.043 295.987C295.435 292.564 300.025 289.834 300.807 288.109C300.997 287.69 299.469 281.896 297.086 273.493L250.217 262.517C250.217 262.517 208.311 270.859 154.119 270.711Z" fill="#E85D1C"/>
</g>
<path fill-rule="evenodd" clip-rule="evenodd" d="M275.69 201.566C275.69 201.566 272.606 200.454 261.075 204.925C249.544 209.396 182.006 232.852 105.532 227.36C105.532 227.36 92.2208 225.553 82.5769 242.497C146.116 263.666 219.547 247.418 242.99 240.003L276.911 228.814L281.988 222.37C278.376 210.376 275.69 201.566 275.69 201.566Z" fill="#FFDA60"/>
<path fill-rule="evenodd" clip-rule="evenodd" d="M259.818 216.423C259.818 216.423 276.871 203.371 271.159 204.631C265.447 205.891 240.487 218.364 188.345 226.809C158.823 231.568 128.766 232.003 99.1198 228.099C96.2316 228.956 93.5332 230.355 91.1689 232.222C104.237 235.305 129.236 240.001 163.485 237.709C218.408 234.037 250.082 220.567 259.818 216.423Z" fill="#FFE568"/>
<path d="M82.5769 242.497C146.116 263.666 219.547 247.418 242.99 240.003" stroke="#FFEAA8" stroke-width="3"/>
<path fill-rule="evenodd" clip-rule="evenodd" d="M256.852 277.916C246.679 281.527 168.475 298.885 78.377 267.855C80.2958 274.587 84.0514 280.651 89.2229 285.368C89.2229 285.368 115.468 300.349 178.816 303.287C239.747 306.113 269.137 299.287 282.043 295.987C295.435 292.564 300.025 289.834 300.807 288.109C301.048 287.577 298.525 278.399 294.996 266.209L256.852 277.916Z" fill="#FECB2F"/>
<g style="mix-blend-mode:multiply" opacity="0.3">
<path fill-rule="evenodd" clip-rule="evenodd" d="M300.808 288.106C300.74 287.071 300.546 286.049 300.231 285.061L278.889 284.077C254.243 295.266 148.019 309.354 78.3779 267.855C79.238 271.057 80.5621 274.117 82.3081 276.936C84.1871 280.071 86.5171 282.912 89.2231 285.368C89.223 285.368 115.468 300.349 178.816 303.287C239.747 306.113 269.137 299.287 282.043 295.987C295.436 292.561 300.026 289.83 300.808 288.106Z" fill="#E85D1C"/>
</g>
<path d="M256.852 277.916C246.679 281.527 168.475 298.885 78.377 267.855" stroke="#FFE568" stroke-width="3"/>
<path fill-rule="evenodd" clip-rule="evenodd" d="M104.465 255.312C99.2008 254.178 96.6459 253.598 92.8899 252.971C86.3589 251.882 85.5089 260.434 90.5569 263.271C94.4717 265.445 98.7025 266.993 103.096 267.858C105.687 268.442 108.342 268.691 110.996 268.601C113.532 268.465 115.896 266.967 116.466 264.694C117.221 261.897 115.823 258.968 113.175 257.794C110.367 256.662 107.448 255.83 104.465 255.312Z" fill="#16A461"/>
<path fill-rule="evenodd" clip-rule="evenodd" d="M90.5569 263.268C94.4717 265.442 98.7025 266.99 103.096 267.855C105.687 268.439 108.342 268.688 110.996 268.598C113.208 268.567 115.222 267.315 116.23 265.345C106.61 262.936 96.8999 259.872 87.4209 256.466C86.91 259.17 88.1689 261.901 90.5569 263.268Z" fill="#16935D"/>
<path fill-rule="evenodd" clip-rule="evenodd" d="M108.07 266.378C107.47 266.333 107.176 266.306 106.585 266.243C105.985 265.601 105.693 265.275 105.133 264.615C101.841 260.659 100.642 258.62 98.5168 257.88C97.0839 257.38 95.4889 257.435 94.5669 259.223C94.1176 260.198 94.1056 261.319 94.5339 262.304C93.8269 262.27 93.4729 262.246 92.7649 262.183C92.2908 260.853 92.4246 259.382 93.1309 258.159C94.2408 256.067 96.7677 255.174 98.9458 256.103C101.433 256.973 102.937 259.217 105.609 262.458C105.993 262.948 106.19 263.191 106.596 263.671L106.647 263.677C107.164 261.292 107.381 260.095 107.726 257.702C108.39 257.768 108.726 257.794 109.396 257.831C109.124 260.704 108.681 263.558 108.07 266.378L108.07 266.378Z" fill="#FFD348"/>
<path fill-rule="evenodd" clip-rule="evenodd" d="M275.691 201.565C272.691 202.365 263.132 211.798 256.616 220.45C250.1 229.102 243.465 236.45 242.99 240.003C242.515 243.556 247.848 255.879 250.217 262.514C252.586 269.149 255.786 276.614 256.852 277.914C257.918 279.214 272.847 282.414 278.889 284.075C284.931 285.736 298.675 288.575 300.808 288.104C302.941 287.633 323.333 266.136 333.632 252.047C341.382 241.557 348.461 230.587 354.825 219.203C355.654 217.426 355.664 214.173 351.28 213.462C346.896 212.751 326.99 210.224 311.234 207.775C296.491 205.485 279.008 200.685 275.691 201.565Z" fill="#F8E9D0"/>
<path fill-rule="evenodd" clip-rule="evenodd" d="M353.187 214.051C352.585 213.759 351.942 213.561 351.28 213.463C346.897 212.752 326.99 210.225 311.234 207.776C296.491 205.484 279.008 200.685 275.69 201.565C272.69 202.365 263.131 211.798 256.615 220.45C251.278 227.537 245.867 233.742 243.821 237.711C247.563 236.526 261.831 234.011 291.286 228.542C296.772 227.524 303.369 226.231 308.786 225.272C323.823 222.539 338.657 218.79 353.187 214.051L353.187 214.051Z" fill="#FCF1E0"/>
<path fill-rule="evenodd" clip-rule="evenodd" d="M353.187 214.051C356.338 218.066 350.414 222.1 344.004 227.606C337.594 233.112 322.936 243.719 295.764 252.048C267.644 260.669 261.509 260.669 250.219 262.513C252.588 269.148 255.788 276.613 256.854 277.913C257.92 279.213 272.849 282.413 278.891 284.074C284.933 285.735 298.677 288.574 300.81 288.103C302.943 287.632 323.335 266.135 333.634 252.046C341.383 241.556 348.461 230.586 354.825 219.202C355.313 218.306 355.415 217.249 355.105 216.277C354.796 215.304 354.103 214.5 353.187 214.051Z" fill="#F5DFCE"/>
<path fill-rule="evenodd" clip-rule="evenodd" d="M345.495 214.552C345.495 214.552 324.458 213.315 308.763 210.616C294.446 208.154 274.963 204.116 271.163 204.634C267.087 208.269 263.296 212.211 259.822 216.426C261.292 215.467 268.167 215.315 287.822 216.433C304.34 217.372 336.145 217.105 345.495 214.552Z" fill="#FFF8ED"/>
<path fill-rule="evenodd" clip-rule="evenodd" d="M352.743 222.963C343.293 238.563 312.717 268.671 278.89 284.076C284.933 285.735 298.676 288.576 300.809 288.105C302.942 287.634 323.334 266.137 333.633 252.048C342.515 239.898 349.433 228.671 352.743 222.963H352.743Z" fill="#EDC1AD"/>
<path fill-rule="evenodd" clip-rule="evenodd" d="M351.28 213.463C347.241 212.808 330.025 210.611 315.018 208.354C315.018 208.354 304.812 217.441 310.469 233.739C316.126 250.037 333.632 252.048 333.632 252.048C341.382 241.558 348.461 230.588 354.825 219.204C355.655 217.427 355.664 214.175 351.28 213.463Z" fill="#194A72"/>
<path fill-rule="evenodd" clip-rule="evenodd" d="M350.691 213.371L350.315 213.315L350.103 213.283L349.727 213.227L349.427 213.184L349.056 213.13L348.717 213.082L348.306 213.024L347.952 212.974L347.464 212.906L347.145 212.861L346.545 212.778L346.256 212.739C339.045 211.739 326.4 210.066 315.021 208.355C310.647 212.86 308.384 219.005 308.79 225.271C332.621 221.049 355.861 215.305 351.283 213.463L350.842 213.394L350.691 213.371Z" fill="#29688C"/>
<path fill-rule="evenodd" clip-rule="evenodd" d="M354.997 218.768C355.023 218.693 355.048 218.617 355.07 218.539C355.084 218.49 355.097 218.439 355.109 218.392C355.127 218.321 355.142 218.25 355.158 218.178C355.17 218.122 355.181 218.064 355.191 218.007C355.201 217.95 355.209 217.874 355.218 217.807C355.227 217.74 355.234 217.68 355.239 217.615C355.239 217.565 355.239 217.515 355.245 217.463C355.252 217.304 355.249 217.144 355.237 216.985C355.237 216.95 355.237 216.914 355.229 216.879C355.219 216.788 355.205 216.698 355.189 216.608C355.182 216.571 355.176 216.534 355.169 216.497C355.149 216.404 355.126 216.312 355.098 216.22C355.089 216.189 355.08 216.161 355.07 216.131C355.037 216.031 355.002 215.931 354.96 215.836L354.95 215.813C354.793 215.461 354.576 215.138 354.309 214.861L354.301 214.852C354.211 214.761 354.118 214.674 354.02 214.593L353.957 214.541C353.855 214.459 353.75 214.383 353.641 214.312C353.615 214.295 353.588 214.279 353.562 214.263C353.443 214.189 353.321 214.116 353.187 214.05C356.338 218.065 350.414 222.099 344.004 227.605C339.867 231.159 329.992 237.023 317.255 244.237C324.255 250.715 333.645 252.404 333.631 252.048C341.382 241.558 348.46 230.588 354.824 219.204C354.872 219.104 354.917 218.994 354.958 218.883C354.973 218.846 354.984 218.802 354.997 218.768Z" fill="#123668"/>
<path fill-rule="evenodd" clip-rule="evenodd" d="M309.892 216.927C324.363 216.882 339.517 216.185 345.492 214.553C345.492 214.553 327.705 213.506 312.639 211.239C311.461 212.997 310.536 214.911 309.892 216.927Z" fill="#3C8DAA"/>
<path fill-rule="evenodd" clip-rule="evenodd" d="M335.461 249.52C335.919 248.881 336.371 248.246 336.818 247.613L336.879 247.528C337.346 246.869 337.803 246.216 338.252 245.567L338.593 245.075C339.006 244.48 339.413 243.89 339.814 243.305C339.849 243.253 339.886 243.2 339.921 243.148C340.352 242.517 340.776 241.893 341.191 241.276C341.297 241.119 341.403 240.962 341.507 240.807C341.876 240.257 342.24 239.713 342.598 239.176L342.741 238.962C343.141 238.362 343.53 237.772 343.907 237.192L344.178 236.777C344.516 236.259 344.848 235.749 345.173 235.246C345.218 235.176 345.264 235.105 345.309 235.037C345.672 234.474 346.026 233.921 346.371 233.38L346.597 233.025C346.901 232.548 347.198 232.079 347.488 231.618L347.615 231.418C347.944 230.894 348.262 230.384 348.571 229.887C348.624 229.804 348.671 229.721 348.725 229.639C349.004 229.187 349.276 228.746 349.541 228.316C349.571 228.266 349.603 228.216 349.634 228.165C349.926 227.688 350.206 227.227 350.476 226.781L350.565 226.634C350.823 226.207 351.072 225.793 351.309 225.397L351.345 225.338C351.599 224.912 351.84 224.505 352.07 224.116L352.097 224.07C352.325 223.683 352.541 223.313 352.743 222.97C348.419 230.107 339.664 240.283 328.208 250.696C329.968 251.323 331.785 251.779 333.633 252.055C334.129 251.377 334.618 250.702 335.099 250.031L335.461 249.52Z" fill="#0E2D54"/>
<path fill-rule="evenodd" clip-rule="evenodd" d="M103.974 228.543C103.483 232.157 105.121 238.259 114.174 241.565C123.227 244.871 136.374 242.212 137.793 242.212C139.212 242.212 140.784 243.156 139.839 248.351C138.894 253.546 140.471 260.669 140.471 260.669C138.916 261.697 138.374 263.725 139.21 265.391C140.469 268.654 137.951 271.791 137.951 275.258C137.951 278.725 135.905 288.309 144.719 289.258C153.533 290.207 175.411 280.882 175.096 278.15C174.781 275.418 168.424 273.787 164.913 268.621C161.402 263.455 162.577 231.677 149.086 231.19C135.595 230.703 103.974 228.543 103.974 228.543Z" fill="url(#paint0_linear_1_7)"/>
<path fill-rule="evenodd" clip-rule="evenodd" d="M111.9 145.756C111.9 145.756 104.31 143.418 97.736 150.306C92.411 155.884 88.0079 164.539 92.385 167.932C96.7621 171.325 111.9 145.756 111.9 145.756Z" fill="#28BBE2"/>
<g style="mix-blend-mode:multiply" opacity="0.2">
<path fill-rule="evenodd" clip-rule="evenodd" d="M111.9 145.757C106.754 147.97 102.249 151.444 98.7998 155.857C94.7189 160.94 92.2529 161.023 92.194 158.157C90.283 162.104 89.801 165.933 92.381 167.933C96.7629 171.322 111.9 145.757 111.9 145.757Z" fill="#242357"/>
</g>
<path fill-rule="evenodd" clip-rule="evenodd" d="M87.059 177.797C84.916 177.474 80.532 178.609 78.142 184.086C75.752 189.563 74.0239 202.446 77.4769 206.963C80.9299 211.48 85.3279 210.319 85.3279 210.319L87.059 177.797Z" fill="#28BBE2"/>
<g style="mix-blend-mode:multiply" opacity="0.2">
<path fill-rule="evenodd" clip-rule="evenodd" d="M80.4479 194.099C79.5479 200.275 76.3868 200.299 75.5409 198.59C75.5599 202.04 76.1049 205.165 77.4789 206.962C80.9319 211.478 85.3298 210.318 85.3298 210.318L87.0608 177.797C87.0608 177.797 82.194 182.143 80.4479 194.099Z" fill="#242357"/>
</g>
<path fill-rule="evenodd" clip-rule="evenodd" d="M142.725 144.346C138.579 142.009 125.425 140.046 115.202 144.018C104.979 147.99 89.8329 168.267 84.1189 185.046C78.4049 201.825 83.2399 217.058 101.545 219.184C119.85 221.31 129.299 218.784 133.745 216.66C138.191 214.536 145.275 199.213 148.413 182.112C151.551 165.011 142.725 144.346 142.725 144.346Z" fill="#28BBE2"/>
<g style="mix-blend-mode:multiply" opacity="0.2">
<path fill-rule="evenodd" clip-rule="evenodd" d="M142.725 144.346C141.543 143.68 133.085 142.667 124.415 145.375C116.42 147.875 103.115 157.533 95.96 170.948C88.8051 184.363 96.642 210.707 95.96 212.623C95.424 214.123 89.786 213.63 85.2229 210.154C88.3519 214.954 93.7109 218.274 101.544 219.184C119.85 221.309 129.298 218.784 133.744 216.66C138.19 214.536 145.274 199.213 148.412 182.112C151.55 165.011 142.725 144.346 142.725 144.346Z" fill="#242357"/>
</g>
<path opacity="0.2" fill-rule="evenodd" clip-rule="evenodd" d="M83.1409 179.216C80.7938 180.563 78.2749 183.974 77.3589 188.607C76.4429 193.24 78.5709 192.539 79.1979 190.448C79.8248 188.357 80.6809 183.554 83.0569 180.867C84.9918 178.676 84.0819 178.677 83.1409 179.216Z" fill="#F5FFFE"/>
<path opacity="0.2" fill-rule="evenodd" clip-rule="evenodd" d="M104.787 146.549C101.488 147.589 98.6575 149.751 96.7869 152.66C95.3689 155.194 96.9288 155.823 98.4868 154.125C100.045 152.427 103.079 148.574 106.129 147.44C109.179 146.306 107.484 145.757 104.787 146.549Z" fill="#F5FFFE"/>
<path opacity="0.2" fill-rule="evenodd" clip-rule="evenodd" d="M125.316 142.742C126.071 142.842 123.356 143.595 119.225 145.757C114.807 148.069 108.317 153.394 105.625 155.991C102.933 158.588 101.255 156.236 108.338 149.673C113.729 144.674 121.71 142.285 125.316 142.742Z" fill="#F5FFFE"/>
<path fill-rule="evenodd" clip-rule="evenodd" d="M167.642 161.474C168.68 163.444 172.688 176.068 169.092 182.984C165.496 189.9 161.611 185.384 161.611 185.384L165.111 162.227L167.642 161.474Z" fill="#007CB6"/>
<path fill-rule="evenodd" clip-rule="evenodd" d="M167.402 166.041C167.276 164.599 166.996 163.175 166.567 161.793L165.111 162.225L161.611 185.382C162.283 186.115 163.174 186.612 164.151 186.797C163.818 186.179 163.594 185.836 163.594 185.836C163.594 185.836 168.612 178.234 167.402 166.041Z" fill="#00629E"/>
<path fill-rule="evenodd" clip-rule="evenodd" d="M169.766 181.366C167.734 179.994 165.072 179.994 163.04 181.366C161.105 182.874 160.559 187.882 160.559 187.882L162.425 199.789C163.486 200.659 164.742 201.259 166.086 201.538C167.484 201.62 168.842 201.053 169.766 200.001C170.547 199.342 172.303 199.342 172.961 197.586C173.619 195.83 173.62 193.744 174.498 192.536C175.376 191.328 178.098 189.353 176.898 186.169C175.698 182.985 175.189 181.494 175.905 179.033C176.539 176.856 177.586 174.994 176.426 173.583C174.984 171.827 171.997 173.215 170.557 175.52C170.609 177.499 170.342 179.473 169.766 181.366Z" fill="#F8C6A3"/>
<path fill-rule="evenodd" clip-rule="evenodd" d="M170.858 188.894C170.836 188.138 167.927 187.305 165.886 185.278C163.845 183.251 165.886 179.851 168.315 180.657C166.544 180.028 164.579 180.292 163.036 181.364C161.101 182.872 160.555 187.88 160.555 187.88L162.421 199.787C163.482 200.657 164.738 201.257 166.082 201.536C167.006 201.65 167.938 201.409 168.691 200.861C167.926 201.181 167.041 200.957 166.52 200.312C165.52 199.194 166.872 196.819 167.543 195.268C168.214 193.717 164.443 192.511 166.343 189.168C167.275 187.523 170.883 189.652 170.858 188.894Z" fill="#F2A37C"/>
<path fill-rule="evenodd" clip-rule="evenodd" d="M174.573 172.798C172.889 173.046 171.411 174.048 170.557 175.52C170.609 177.499 170.342 179.473 169.765 181.367C169.765 181.367 171.814 182.69 173.283 183.718C172.745 182.911 172.367 182.009 172.168 181.06C171.543 179.076 171.594 176.94 172.313 174.988C172.761 173.997 173.569 173.214 174.573 172.798V172.798Z" fill="#F2A37C"/>
<path opacity="0.3" fill-rule="evenodd" clip-rule="evenodd" d="M175.201 178.45C174.239 180.589 175.08 183.364 175.889 185.338C176.698 187.312 176.818 189.152 174.783 192.183C175.842 190.955 177.983 189.061 176.9 186.167C175.706 182.984 175.19 181.492 175.906 179.031C176.54 176.854 177.587 174.992 176.427 173.581C176.817 174.285 176.319 175.962 175.201 178.45Z" fill="white"/>
<path fill-rule="evenodd" clip-rule="evenodd" d="M158.641 155.98C158.641 155.98 164.463 154.689 165.515 165.302C166.726 177.494 161.707 185.097 161.707 185.097C161.707 185.097 167.546 193.969 164.468 204.549C162.445 211.5 128.083 218.229 101.544 212.388C101.544 212.388 102.434 188.643 110.944 172.388C115.951 162.738 123.95 154.971 133.744 150.251L142.729 149.671C142.729 149.671 146.88 154.993 150.816 156.643C154.752 158.293 158.641 155.98 158.641 155.98Z" fill="#EFF8FC"/>
<path fill-rule="evenodd" clip-rule="evenodd" d="M130.294 214.279L142.449 204.549C142.449 204.549 127.835 207.708 119.393 206.076C110.951 204.444 108.951 195.941 111.899 192.183L109.699 187.176L105.287 187.711C103.257 195.798 102.004 204.061 101.545 212.387C110.992 214.36 120.67 214.997 130.294 214.279Z" fill="#CCE4EA"/>
<path fill-rule="evenodd" clip-rule="evenodd" d="M149.084 181.24C149.084 181.24 158.248 181.54 161.708 185.097C162.213 184.384 162.619 183.607 162.915 182.785C158.849 179.999 153.664 179.42 149.084 181.24Z" fill="#CCE4EA"/>
<path fill-rule="evenodd" clip-rule="evenodd" d="M114.078 189.839C117.833 190.786 122.768 195.672 132.718 196.324C142.668 196.976 147.197 193.909 151.83 189.839C146.212 192.051 139.993 192.199 134.276 190.258C123.46 186.528 120.376 177.287 109.294 177.036C109.118 177.036 108.95 177.045 108.778 177.049C104.991 186.236 103.162 196.707 102.296 203.849L114.078 189.839Z" fill="#CCE4EA"/>
<path fill-rule="evenodd" clip-rule="evenodd" d="M153.387 168.242C153.387 168.242 153.202 176.226 146.787 178.45C146.787 178.45 156.273 178.35 156.547 172.789C156.821 167.228 153.387 168.242 153.387 168.242Z" fill="#A9CBD3"/>
<path fill-rule="evenodd" clip-rule="evenodd" d="M149.084 159.706C149.084 159.706 149.352 167.621 154.119 168.924C159.054 170.272 155.032 159.829 154.363 159.743C153.694 159.657 149.084 159.706 149.084 159.706Z" fill="#A9CBD3"/>
<path fill-rule="evenodd" clip-rule="evenodd" d="M153.123 158.141C150.648 159.241 149.487 162.188 149.281 164.146C149.075 166.104 149.095 166.487 148.607 166.38C146.898 166.14 145.312 165.357 144.083 164.146C141.82 162.112 147.176 154.126 147.176 154.126H148.163C150.084 154.127 151.827 155.254 152.614 157.007L153.123 158.141Z" fill="#A9CBD3"/>
<path fill-rule="evenodd" clip-rule="evenodd" d="M161.148 160.337C162.479 161.844 162.378 165.019 162.479 165.681C162.58 166.343 165.846 164.041 166.086 162.796C166.326 161.551 164.398 156.152 164.398 156.152L161.148 160.337Z" fill="#A9CBD3"/>
<path fill-rule="evenodd" clip-rule="evenodd" d="M135.344 151.655L141.69 151.245C143.718 156.431 143.718 162.191 141.69 167.377C138.316 176.321 131.574 180.561 123.926 179.755L135.344 151.655Z" fill="#CCE4EA"/>
<path fill-rule="evenodd" clip-rule="evenodd" d="M133.74 150.253L140.086 149.843C142.113 155.029 142.113 160.788 140.086 165.974C136.711 174.919 129.969 179.158 122.322 178.353L133.74 150.253Z" fill="#007CB6"/>
<path fill-rule="evenodd" clip-rule="evenodd" d="M122.323 178.353C123.491 178.474 124.668 178.472 125.835 178.347C129.342 174.314 133.512 169.254 135.508 165.836C138.141 161.312 138.553 155.831 136.626 150.964C136.4 150.629 136.109 150.343 135.771 150.122L133.741 150.253L122.323 178.353Z" fill="#00629E"/>
<path fill-rule="evenodd" clip-rule="evenodd" d="M121.126 175.493C121.126 175.493 89.9028 214.276 87.5739 216.954C85.2449 219.632 84.7799 222.31 79.4229 222.194C74.0658 222.078 70.1079 223.125 65.6829 224.173C61.2578 225.221 58.1149 224.873 58.4629 222.309C58.8109 219.745 63.9359 216.487 63.9359 216.487L52.991 212.528C54.2521 210.916 56.1832 209.971 58.23 209.966C61.839 209.849 67.778 211.48 69.525 211.48C71.2721 211.48 72.902 210.315 76.163 205.89C79.424 201.465 104.341 167.931 104.341 167.931L121.126 175.493Z" fill="#F8C6A3"/>
<path fill-rule="evenodd" clip-rule="evenodd" d="M100.776 172.73C98.752 175.455 96.057 179.083 93.176 182.96C95.489 185.699 97.865 188 98.876 188.253C100.189 188.581 103.657 187.662 105.287 187.711C105.287 187.711 85.533 213.971 83.016 216.865C80.499 219.759 75.745 218.736 71.394 219.986C67.0431 221.236 61.661 225.241 58.609 223.486C59.298 224.95 62.0601 225.032 65.684 224.174C70.1079 223.125 74.068 222.074 79.424 222.195C84.7799 222.316 85.2469 219.633 87.575 216.955C89.3379 214.929 107.645 192.228 116.447 181.303L100.776 172.73Z" fill="#F2A37C"/>
<path fill-rule="evenodd" clip-rule="evenodd" d="M66.9808 214.851C66.9808 214.851 56.2239 212.259 55.2969 211.908C54.4868 211.602 55.2639 210.622 55.8759 210.423C54.731 210.832 53.729 211.564 52.9908 212.53L63.9358 216.489C64.922 215.891 65.9384 215.344 66.981 214.851H66.9808Z" fill="#F2A37C"/>
<path opacity="0.3" fill-rule="evenodd" clip-rule="evenodd" d="M76.163 205.892C72.902 210.317 71.272 211.482 69.525 211.482C67.7781 211.482 61.84 209.851 58.23 209.968C57.9602 209.978 57.6912 210.002 57.424 210.04C61.1709 210.092 65.3459 211.68 67.418 212.218C69.49 212.756 71.418 213.218 73.8519 210.423C76.2859 207.628 92.637 183.689 92.642 183.681C85.6859 193.046 77.8889 203.546 76.163 205.892Z" fill="white"/>
<path fill-rule="evenodd" clip-rule="evenodd" d="M133.736 150.253C131.783 147.153 122.257 147.338 114.619 153.853C105.933 161.261 97.7321 169.733 97.7321 169.733C97.7321 169.733 98.8651 173.873 105.238 179.481C108.484 182.471 112.746 184.113 117.159 184.074C117.159 184.074 128.822 171.626 132.618 165.128C135.252 160.603 135.664 155.12 133.736 150.253Z" fill="#DEF1F8"/>
<path fill-rule="evenodd" clip-rule="evenodd" d="M105.243 179.479C108.489 182.469 112.751 184.111 117.163 184.072C117.163 184.072 128.825 171.624 132.622 165.125C133.926 162.912 134.7 160.427 134.884 157.865L134.873 157.811C131.763 164.978 116.873 181.533 97.7361 169.731C97.736 169.731 98.869 173.871 105.243 179.479Z" fill="#CCE4EA"/>
<path fill-rule="evenodd" clip-rule="evenodd" d="M130.307 149.722C125.544 149.478 120.838 150.84 116.941 153.589C113.305 156.167 110.602 159.165 116.941 159.574C123.28 159.983 129.605 155.321 131.202 153.589C132.718 151.949 133.682 150.003 130.307 149.722Z" fill="#E9F6FB"/>
<path fill-rule="evenodd" clip-rule="evenodd" d="M127.446 150.572C123.635 150.994 120.913 152.237 119.399 153.797C117.885 155.357 126.689 154.241 129.43 153.066C132.803 151.621 131.675 150.103 127.446 150.572Z" fill="#EFF8FC"/>
<path fill-rule="evenodd" clip-rule="evenodd" d="M162.022 150.314C162.022 150.314 165.346 150.075 166.898 152.202C168.224 154.02 168.938 157.365 167.641 161.474C166.221 165.974 164.255 166.04 163.841 165.958C163.427 165.876 163.887 161.358 162.299 159.746C160.711 158.134 158.638 155.98 158.638 155.98C158.638 155.98 160.201 151.302 162.022 150.314Z" fill="#DEF1F8"/>
<path fill-rule="evenodd" clip-rule="evenodd" d="M167.543 153.363C167.368 152.954 167.151 152.565 166.896 152.201C165.344 150.074 162.02 150.313 162.02 150.313C160.199 151.301 158.638 155.979 158.638 155.979C158.638 155.979 160.712 158.136 162.299 159.745C163.156 160.615 163.416 162.331 163.539 163.739C163.883 160.858 163.239 158.908 162.476 156.213C162.112 154.888 162.752 153.492 163.994 152.903C165.18 152.46 166.509 152.632 167.543 153.363H167.543Z" fill="#CCE4EA"/>
<path fill-rule="evenodd" clip-rule="evenodd" d="M166.317 154.578C164.9 153.74 164.304 156.047 164.802 158.578C165.075 160.507 165.048 162.466 164.722 164.386C164.678 165.086 165.956 164.124 166.868 161.486C167.78 158.848 168.039 155.596 166.317 154.578Z" fill="#E9F6FB"/>
<path fill-rule="evenodd" clip-rule="evenodd" d="M149.071 142.932C147.149 145.353 145.026 147.608 142.725 149.673C142.725 149.673 146.576 158.166 154.364 159.746C154.364 159.746 159.82 156.201 162.064 150.723C162.064 150.723 161.125 147.528 156.046 144.707C150.967 141.886 149.071 142.932 149.071 142.932Z" fill="#F8C6A3"/>
<path fill-rule="evenodd" clip-rule="evenodd" d="M156.042 144.706C150.964 141.885 149.071 142.931 149.071 142.931C149.071 142.931 148.771 143.342 148.085 144.146L147.653 144.646C147.653 144.646 148.843 148.546 153.929 151.413C155.935 152.57 158.136 153.349 160.423 153.713C161.069 152.776 161.618 151.775 162.061 150.726C162.061 150.726 161.12 147.527 156.042 144.706Z" fill="#F2A37C"/>
<path fill-rule="evenodd" clip-rule="evenodd" d="M156.042 144.706C150.964 141.885 149.071 142.931 149.071 142.931C149.071 142.931 148.885 143.181 148.516 143.631C152.579 148.1 157.881 149.631 162.06 150.722C162.06 150.722 161.121 147.527 156.042 144.706Z" fill="#DD8964"/>
<path fill-rule="evenodd" clip-rule="evenodd" d="M154.118 168.927C153.989 171.059 153.318 176.87 146.691 177.411C140.064 177.952 135.473 177.201 125.337 168.927C115.201 160.653 109.93 156.576 100.604 158.141C97.4949 158.896 86.9529 168.49 86.8188 170.924C86.6848 173.358 98.7118 184.303 99.9279 185.25C101.144 186.197 108.193 184.367 115.516 187.441C121.871 190.108 127.916 196.332 141.897 194.17C155.878 192.008 162.204 177.47 160.191 168.928C160.192 168.927 158.437 166.789 154.118 168.927Z" fill="#EA4D5F"/>
<path fill-rule="evenodd" clip-rule="evenodd" d="M119.393 164.197C117.481 162.706 115.454 161.368 113.331 160.197C107.049 167.144 99.4001 172.718 90.8629 176.569C93.4449 179.326 96.6389 182.326 98.4949 183.999C108.294 178.407 116.509 168.69 119.393 164.197Z" fill="#EFF8FC"/>
<path fill-rule="evenodd" clip-rule="evenodd" d="M128.721 193.585C131.503 194.358 134.387 194.698 137.273 194.595C138.862 188.806 139.242 182.753 138.389 176.811C136.881 176.355 135.425 175.744 134.044 174.986C133.73 181.514 131.908 187.88 128.721 193.585Z" fill="#EFF8FC"/>
<path fill-rule="evenodd" clip-rule="evenodd" d="M148.152 192.182C150.046 191.232 151.787 190.004 153.318 188.539C152.402 184.434 150.643 180.563 148.154 177.173C147.673 177.289 147.185 177.368 146.693 177.41C145.61 177.498 144.584 177.546 143.577 177.538C146.667 181.785 148.274 186.931 148.152 192.182Z" fill="#EFF8FC"/>
<path fill-rule="evenodd" clip-rule="evenodd" d="M120.183 189.826C125.252 183.602 127.809 176.152 128.971 171.742C127.839 170.916 126.635 169.985 125.338 168.926C124.896 168.564 124.473 168.226 124.049 167.876C120.697 176.297 114.733 182.676 110.986 186.087C112.539 186.38 114.057 186.833 115.517 187.439C117.113 188.152 118.671 188.949 120.183 189.826H120.183Z" fill="#EFF8FC"/>
<path fill-rule="evenodd" clip-rule="evenodd" d="M153.634 171.852C153.263 173.207 152.538 174.439 151.534 175.422C154.285 176.772 156.669 178.768 158.481 181.24C159.167 179.74 159.695 178.173 160.056 176.564C158.247 174.585 156.064 172.984 153.634 171.852Z" fill="#EFF8FC"/>
<g style="mix-blend-mode:multiply" opacity="0.2">
<path fill-rule="evenodd" clip-rule="evenodd" d="M154.119 168.926C154.078 171.124 153.325 173.25 151.972 174.983V174.983C153.38 173.694 154.381 172.023 154.856 170.174C154.856 170.174 159.039 171.506 160.192 168.923L157.121 168.004C156.072 168.123 155.054 168.435 154.119 168.926Z" fill="#242357"/>
</g>
<path fill-rule="evenodd" clip-rule="evenodd" d="M154.107 156.435C155.412 155.89 159.033 155.235 160.771 157.049C162.509 158.863 162.909 161.032 162.022 164.219C161.614 165.86 160.999 167.442 160.192 168.927C158.316 170.024 155.994 170.024 154.118 168.927C151.536 166.627 150.058 163.334 150.056 159.876C151.062 158.377 152.464 157.185 154.107 156.435Z" fill="#EA4D5F"/>
<path fill-rule="evenodd" clip-rule="evenodd" d="M160.585 168.173C158.051 164.753 154.357 162.374 150.195 161.483C150.342 162.516 150.613 163.527 151.003 164.495C153.817 165.638 156.346 167.386 158.411 169.614C159.042 169.498 159.646 169.264 160.191 168.926C160.191 168.926 160.347 168.669 160.585 168.173Z" fill="#EFF8FC"/>
<path fill-rule="evenodd" clip-rule="evenodd" d="M155.118 156.12C154.773 156.198 154.436 156.303 154.108 156.434C153.258 156.842 152.463 157.356 151.743 157.965C155.743 158.893 159.346 161.063 162.036 164.165C162.391 163.009 162.53 161.797 162.447 160.591C160.403 158.528 157.888 156.993 155.118 156.12Z" fill="#EFF8FC"/>
<g style="mix-blend-mode:multiply" opacity="0.2">
<path fill-rule="evenodd" clip-rule="evenodd" d="M153.122 164.146C152.452 160.276 153.835 156.731 155.746 155.994C155.185 156.082 154.636 156.23 154.107 156.435C152.465 157.186 151.062 158.377 150.056 159.876C150.057 163.332 151.535 166.626 154.117 168.926C155.035 169.419 156.055 169.693 157.097 169.727C155.337 169.057 153.732 167.669 153.122 164.146Z" fill="#242357"/>
</g>
<g style="mix-blend-mode:multiply" opacity="0.2">
<path fill-rule="evenodd" clip-rule="evenodd" d="M140.918 191.571C128.718 191.304 124.931 186.971 115.468 182.756C110.885 180.716 103.392 181.195 101.544 180.348C99.244 179.293 89.8051 171.211 89.51 170.354C88.995 168.854 95.4041 161.474 95.4041 161.474C91.4141 164.714 86.9091 169.338 86.822 170.923C86.687 173.355 98.715 184.302 99.931 185.249C101.147 186.196 108.196 184.366 115.519 187.44C121.874 190.107 127.919 196.331 141.9 194.169C147.73 193.265 152.927 189.991 156.26 185.122C153.308 188.547 149.483 191.759 140.918 191.571Z" fill="#242357"/>
</g>
<path opacity="0.15" fill-rule="evenodd" clip-rule="evenodd" d="M109.684 160.003C107.046 159.2 104.27 158.952 101.531 159.272C99.943 159.56 97.0911 162.212 95.374 164.326C92.401 167.984 99.782 164.116 110.146 168.436C120.51 172.756 133.851 179.75 136.51 178.891C139.169 178.032 131.405 175.196 125.31 170.291C120.242 166.197 114.022 161.323 109.684 160.003Z" fill="white"/>
<path opacity="0.15" fill-rule="evenodd" clip-rule="evenodd" d="M160.192 157.454C158.417 156.289 157.673 159.425 157.852 162.795C158.031 166.165 158.421 168.809 159.389 168.395C160.357 167.981 161.933 163.81 161.817 161.485C161.701 159.16 161.079 158.038 160.192 157.454Z" fill="white"/>
<path fill-rule="evenodd" clip-rule="evenodd" d="M147.379 144.958C146.353 144.135 145.015 143.81 143.726 144.071C141.269 144.388 134.216 149.301 133.741 150.253C133.266 151.205 133.399 155.306 138.341 161.031C141.092 164.221 145.791 166.183 147.059 166.579C148.327 166.975 147.587 159.479 154.113 156.435C154.113 156.435 154.462 155.019 151.313 153.67C149.013 152.688 145.755 149.67 145.597 146.883L147.379 144.958Z" fill="#DEF1F8"/>
<path fill-rule="evenodd" clip-rule="evenodd" d="M145.588 146.883L147.379 144.958C146.353 144.135 145.015 143.81 143.726 144.071C141.269 144.388 134.216 149.301 133.741 150.253C133.266 151.205 133.399 155.306 138.341 161.031C135.59 157.098 135.95 151.345 138.123 149.673C140.296 148.001 143.474 145.441 144.565 148.226C145.656 151.011 150.065 152.992 150.065 152.993C147.979 151.656 145.719 149.199 145.588 146.883Z" fill="#CCE4EA"/>
<path fill-rule="evenodd" clip-rule="evenodd" d="M150.426 155.033C151.558 154.399 154.239 155.176 152.268 156.482C149.333 158.428 147.474 163.371 147.128 164.371C146.782 165.371 144.449 164.489 142.573 163.31C140.697 162.131 139.231 160.868 138.832 159.599C138.66 159.049 142.806 161.785 145.226 159.746C147.646 157.707 148.15 156.309 150.426 155.033Z" fill="#E9F6FB"/>
<path fill-rule="evenodd" clip-rule="evenodd" d="M134.065 131.086C133.015 135.655 134.744 138.434 135.917 139.607C137.09 140.78 139.499 141.521 140.301 138.989C141.214 141.031 143.017 142.537 145.189 143.071C148.833 143.936 150.057 141.336 150.057 141.336L144.191 132.322L134.065 131.086Z" fill="#D65132"/>
<path fill-rule="evenodd" clip-rule="evenodd" d="M134.065 131.086C133.782 132.264 133.687 133.479 133.782 134.686C135.988 136.718 139.224 137.165 141.899 135.809C141.899 135.809 143.58 141.334 148.571 142.779C149.198 142.454 149.715 141.952 150.057 141.334L144.191 132.32L134.065 131.086Z" fill="#BA422B"/>
<path fill-rule="evenodd" clip-rule="evenodd" d="M174.012 96.057C181.941 96.057 191.658 101.641 193.892 110.357C196.126 119.073 195.455 126.328 196.572 131.357C197.272 134.498 197.791 138.341 196.344 141.688C196.078 142.305 195.773 142.905 195.43 143.483C193.06 147.483 188.58 150.341 182.279 151.824C175.029 153.357 167.492 152.781 160.558 150.165C151.958 146.591 146.202 142.637 142.516 133.032C138.394 121.818 142.449 109.238 152.344 102.542C163.402 95.051 174.012 96.057 174.012 96.057Z" fill="#F8C6A3"/>
<path fill-rule="evenodd" clip-rule="evenodd" d="M144.327 123.371C144.495 124.895 145.887 126.339 148.583 125.344C151.279 124.349 156.309 119.714 157.283 107.438L144.327 123.371Z" fill="#F2A37C"/>
<path fill-rule="evenodd" clip-rule="evenodd" d="M174.012 96.057C170.623 95.9016 167.231 96.2949 163.967 97.222C160.74 99.222 157.852 100.922 157.852 100.922C161.599 108.98 169.726 113.937 174.874 115.047C180.022 116.157 186.189 116.147 188.474 112.995C190.619 110.036 187.334 106.987 187.334 106.987C189.176 108.231 191.305 108.984 193.519 109.176C190.749 101.145 181.578 96.057 174.012 96.057Z" fill="#F2A37C"/>
<circle opacity="0.5" cx="158.529" cy="132.377" r="8.771" fill="#EE9681"/>
<path opacity="0.5" fill-rule="evenodd" clip-rule="evenodd" d="M188.495 132.615C188.495 137.146 191.949 140.931 196.462 141.346C197.739 138.078 197.247 134.388 196.572 131.346C196.128 128.913 195.86 126.45 195.772 123.978C191.568 124.703 188.496 128.349 188.495 132.615H188.495Z" fill="#EE9681"/>
<path fill-rule="evenodd" clip-rule="evenodd" d="M196.248 129.515C194.899 130.556 193.244 131.122 191.54 131.128C187.058 131.128 183.408 127.228 183.311 122.398C183.217 122.364 183.126 122.322 183.038 122.274C182.808 122.14 182.584 121.996 182.361 121.853C182.361 121.97 182.344 122.085 182.344 122.203C182.344 122.261 182.352 122.318 182.353 122.375C182.034 122.245 181.691 122.186 181.347 122.203C180.469 122.182 179.602 122.394 178.833 122.819C178.844 122.619 178.865 122.412 178.865 122.203V122.172C178.727 122.3 178.598 122.438 178.48 122.585C178.325 122.798 178.112 122.962 177.865 123.055C177.403 128.57 172.676 132.741 167.146 132.513C161.616 132.285 157.249 127.738 157.243 122.203C157.243 121.917 157.262 121.634 157.286 121.353C157.157 121.293 157.035 121.219 156.923 121.131L156.393 120.72C156.373 120.876 156.359 121.033 156.343 121.19L141.614 118.99L142.385 123.236L156.375 123.571C157.04 129.035 161.55 133.222 167.049 133.479C172.547 133.736 177.429 129.988 178.6 124.61C179.464 124.171 180.42 123.942 181.389 123.943C181.776 123.934 182.162 124 182.525 124.135C183.224 128.61 187.013 131.951 191.541 132.085C193.281 132.081 194.98 131.554 196.417 130.571L196.248 129.515Z" fill="#F2A37C"/>
<path fill-rule="evenodd" clip-rule="evenodd" d="M196.248 129.515C194.898 130.555 193.244 131.122 191.54 131.128C190.581 131.125 189.631 130.941 188.74 130.585C188.664 130.902 188.607 131.223 188.567 131.547C189.518 131.901 190.525 132.083 191.541 132.085C193.281 132.081 194.98 131.554 196.417 130.571L196.304 129.864C196.293 129.786 196.278 129.711 196.267 129.632L196.248 129.515Z" fill="#EB7C74"/>
<path opacity="0.3" fill-rule="evenodd" clip-rule="evenodd" d="M196.031 133.278C196.642 137.836 196.401 141.903 191.822 146.055C186.467 150.91 176.667 152.828 170.233 152.443C174.256 152.885 178.324 152.674 182.28 151.817C188.58 150.334 193.06 147.472 195.431 143.476C195.774 142.898 196.079 142.298 196.345 141.681C197.792 138.333 197.271 134.491 196.573 131.35C196.182 129.312 195.941 127.248 195.85 125.175L195.695 125.064C195.94 126.454 195.418 128.72 196.031 133.278Z" fill="white"/>
<path fill-rule="evenodd" clip-rule="evenodd" d="M167.223 133.475C167.264 133.158 167.287 132.839 167.292 132.52C162.277 132.378 158.089 128.654 157.36 123.691C157.045 123.734 156.733 123.793 156.425 123.869C157.234 129.257 161.777 133.299 167.223 133.475Z" fill="#EB7C74"/>
<path opacity="0.3" fill-rule="evenodd" clip-rule="evenodd" d="M157.473 124.907C157.473 125.907 156.202 126.707 154.635 126.707C153.068 126.707 151.797 125.9 151.797 124.907C151.797 123.914 153.068 123.107 154.635 123.107C156.202 123.107 157.473 123.912 157.473 124.907Z" fill="white"/>
<g style="mix-blend-mode:multiply" opacity="0.7">
<path fill-rule="evenodd" clip-rule="evenodd" d="M166.899 130.287C171.356 130.287 175.835 126.998 176.514 120.654C177.193 114.31 172.555 108.202 164.778 110.512C157.001 112.822 156.829 122.074 159.178 125.672C160.818 128.405 163.715 130.137 166.899 130.287Z" fill="url(#paint1_linear_1_7)"/>
</g>
<g style="mix-blend-mode:multiply" opacity="0.7">
<path fill-rule="evenodd" clip-rule="evenodd" d="M193.91 110.448C192.104 109.868 190.16 109.876 188.359 110.471C181.219 112.586 181.064 121.082 183.221 124.383C184.725 126.893 187.386 128.483 190.309 128.619C192.387 128.614 194.39 127.843 195.936 126.454C195.603 122.03 195.48 116.602 193.91 110.448Z" fill="url(#paint2_linear_1_7)"/>
</g>
<path fill-rule="evenodd" clip-rule="evenodd" d="M141.613 118.113C143.061 119.527 144.013 121.371 144.327 123.371C144.621 125.435 147.919 126.256 152.373 119.976C158.529 111.298 157.852 100.923 157.852 100.923C161.884 105.183 166.623 108.715 171.859 111.361C180.014 115.291 184.828 114.24 187.186 113.243C189.544 112.246 191.214 109.396 189.052 105.859C189.052 105.859 193.08 109.003 200.841 108.708C208.602 108.413 211.746 104.68 209.584 101.831C207.422 98.982 203.272 96.752 197.266 94.94C197.266 94.94 204.181 94.366 203.789 90.535C203.397 86.704 193.617 77.35 174.946 79.935C153.967 82.835 150.803 93.56 150.803 93.56C150.803 93.56 147.917 91.878 141.613 91.927C137.162 91.962 134.232 93.746 133.937 94.752C133.642 95.758 134.286 96.339 136.317 97.116C137.887 97.6832 139.423 98.3406 140.917 99.085C137.254 100.248 133.872 102.16 130.988 104.7C125.978 109.022 126.041 112.984 126.567 113.541C127.554 114.587 130.134 112.124 133.867 111.632C133.867 111.632 131.282 117.455 131.967 122.464C132.652 127.473 141.613 118.113 141.613 118.113Z" fill="#E26644"/>
<path fill-rule="evenodd" clip-rule="evenodd" d="M163.117 93.832C160.717 94.246 159.009 96.239 162.302 97.416C165.595 98.593 176.017 102.969 180.934 106.954C186.148 111.181 190.259 112.004 188.975 107.937C187.151 103.14 183.69 99.1414 179.204 96.648C174.318 93.9091 168.644 92.9159 163.117 93.832H163.117Z" fill="#EE7249"/>
<path fill-rule="evenodd" clip-rule="evenodd" d="M184.033 114.061C178.587 113.715 168.348 109.086 158.362 96.974C158.223 96.8065 157.991 96.7506 157.791 96.8367C157.592 96.9229 157.473 97.1303 157.5 97.346C157.624 98.301 157.764 99.562 157.852 100.924C161.884 105.185 166.623 108.716 171.859 111.363C177.337 114.002 181.301 114.387 184.033 114.061Z" fill="#D65132"/>
<path fill-rule="evenodd" clip-rule="evenodd" d="M163.478 82.811C152.724 87.059 150.803 93.559 150.803 93.559C150.803 93.559 147.917 91.877 141.613 91.926C137.162 91.96 134.232 93.745 133.937 94.751C133.642 95.757 134.286 96.338 136.317 97.115C137.887 97.6823 139.422 98.3397 140.917 99.084C137.254 100.247 133.872 102.159 130.988 104.699C125.978 109.021 126.041 112.983 126.567 113.54C127.554 114.586 130.134 112.123 133.867 111.631C133.867 111.631 131.282 117.454 131.967 122.463C132.652 127.472 141.608 118.113 141.608 118.113C142.44 118.951 143.12 119.927 143.618 120.998C144.151 120.018 144.546 119.053 144.181 118.498C142.299 115.625 141.603 111.376 143.381 105.978C144.373 102.417 146.887 99.4767 150.251 97.944C151.591 97.2984 153.064 96.9774 154.551 97.007C154.714 97.011 154.868 96.9296 154.957 96.792C155.017 96.6392 155.008 96.4682 154.934 96.322C154.37 94.5922 154.358 92.7302 154.898 90.993C155.856 88.119 157.89 85.653 163.478 82.811Z" fill="#D65132"/>
<path fill-rule="evenodd" clip-rule="evenodd" d="M143.771 121.339C144.038 121.991 144.225 122.673 144.327 123.371C144.489 124.508 145.606 125.287 147.294 124.701C146.77 124.861 146.199 124.721 145.809 124.336C145.64 124.024 145.573 123.666 145.617 123.314L149.417 123.405H149.423C149.979 122.929 150.493 122.408 150.962 121.846L147.572 121.608L143.771 121.339Z" fill="#D65132"/>
<path fill-rule="evenodd" clip-rule="evenodd" d="M200.841 108.708C205.922 108.516 209.009 106.847 209.941 104.919C205.686 108.419 195.75 105.841 191.541 103.862C189.362 102.783 187.247 101.581 185.205 100.262C186.839 101.861 188.146 103.763 189.052 105.862C189.052 105.862 193.08 109.003 200.841 108.708Z" fill="#D65132"/>
<path fill-rule="evenodd" clip-rule="evenodd" d="M203.788 90.534C203.604 89.5351 203.14 88.6089 202.451 87.863C204.724 91.163 200.726 92.081 197.94 92.639C195.154 93.197 187.692 93.615 187.692 93.615C187.692 93.615 195.011 94.522 197.266 94.939C197.266 94.939 204.181 94.366 203.788 90.534Z" fill="#D65132"/>
<path fill-rule="evenodd" clip-rule="evenodd" d="M138.246 95.397C135.472 94.687 135.484 93.338 136.815 92.738C135.135 93.349 134.105 94.176 133.936 94.751C133.641 95.758 134.285 96.338 136.316 97.115C137.886 97.6823 139.422 98.3397 140.916 99.084C142.292 98.6792 143.702 98.3971 145.129 98.241C142.923 97.092 140.62 96.1403 138.246 95.397Z" fill="#BA422B"/>
<path fill-rule="evenodd" clip-rule="evenodd" d="M129.982 110.44C127.682 111.566 126.351 112.193 126.537 111.085C126.221 111.875 126.233 112.757 126.568 113.539C127.555 114.585 130.135 112.122 133.868 111.63C134.398 110.231 135.142 108.923 136.073 107.752C133.994 108.533 131.96 109.431 129.982 110.44H129.982Z" fill="#BA422B"/>
<path fill-rule="evenodd" clip-rule="evenodd" d="M189.342 81.63C181.834 79.494 166.192 80.7 159.602 86.795C157.45 88.785 163.157 87.516 170.374 87.622C177.16 87.8405 183.916 88.6394 190.566 90.01C197.8 91.61 202.593 91.17 202.089 89.32C201.585 87.47 196.632 83.7 189.342 81.63Z" fill="#EE7249"/>
<path fill-rule="evenodd" clip-rule="evenodd" d="M209.43 104.152C210.038 102.619 206.857 99.297 202.125 97.463C197.393 95.629 190.566 94.363 189.042 94.94C187.35 95.584 192.535 102.682 200.198 104.964C206.843 106.942 208.913 105.448 209.43 104.152Z" fill="#EE7249"/>
<path fill-rule="evenodd" clip-rule="evenodd" d="M156.01 100.752C155.01 99.396 151.264 100.906 149.004 104.775C146.117 109.717 147.204 117.403 149.226 118.112C151.248 118.821 154.135 114.043 155.184 110.012C156.233 105.981 156.887 101.942 156.01 100.752Z" fill="#EE7249"/>
<path fill-rule="evenodd" clip-rule="evenodd" d="M137.583 93.192C136.561 93.509 137.311 94.714 139.069 94.7469C140.844 94.7809 147.602 94.401 147.513 93.767C147.424 93.1329 142.032 91.809 137.583 93.192Z" fill="#E26644"/>
<path fill-rule="evenodd" clip-rule="evenodd" d="M127.68 110.44C127.938 110.752 129.339 110.263 130.648 108.978C131.957 107.693 135.753 103.335 136.075 102.778C136.397 102.221 133.394 103.256 130.648 105.861C127.902 108.466 127.404 110.107 127.68 110.44Z" fill="#E26644"/>
<path fill-rule="evenodd" clip-rule="evenodd" d="M195.677 96.313C198.508 97.013 205.101 98.278 208.9 102.951C207.192 101.477 205.261 100.284 203.18 99.414C200.737 98.2452 198.232 97.2101 195.677 96.313H195.677Z" fill="#F49A6E"/>
<path fill-rule="evenodd" clip-rule="evenodd" d="M168.639 82.811C171.955 81.484 184.662 80.79 190.763 82.811C197.973 85.198 200.363 88.281 200.363 88.281C196.353 86.3477 192.087 85.0006 187.694 84.281C189.916 84.3707 192.125 84.6609 194.294 85.148C194.294 85.1479 190.194 82.548 182.008 82.148C177.541 81.8617 173.056 82.0841 168.639 82.811H168.639Z" fill="#F49A6E"/>
<path fill-rule="evenodd" clip-rule="evenodd" d="M178.232 96.795C182.169 98.303 187.063 103.59 188.291 107.232C186.997 105.14 185.471 103.201 183.742 101.452C182.025 99.7633 180.183 98.2066 178.232 96.795V96.795Z" fill="#F49A6E"/>
<path fill-rule="evenodd" clip-rule="evenodd" d="M155.657 102.408C155.709 104.316 154.921 112.138 150.802 117.071C150.358 115.218 150.358 113.285 150.802 111.432C150.869 112.611 151.026 113.784 151.273 114.939C151.273 114.939 154.162 111.33 155.657 102.408Z" fill="#F49A6E"/>
<g style="mix-blend-mode:multiply" opacity="0.5">
<path fill-rule="evenodd" clip-rule="evenodd" d="M170.319 109.427C170.189 108.209 167.606 107.037 163.925 109.104C160.244 111.171 158.951 114.404 159.21 115.369C159.469 116.334 162.81 114.929 165.152 114.013C169.092 112.469 170.705 113.044 170.319 109.427Z" fill="#F2A37C"/>
</g>
<g style="mix-blend-mode:multiply" opacity="0.5">
<path fill-rule="evenodd" clip-rule="evenodd" d="M195.008 116.012C194.844 114.883 194.642 113.723 194.392 112.532C193.561 111.358 192.469 110.393 191.201 109.713C187.519 107.645 186.139 109.435 186.123 110.661C186.087 113.432 188.523 113.823 190.823 114.613C192.734 115.268 194.319 116.176 195.008 116.012Z" fill="#F2A37C"/>
</g>
<path fill-rule="evenodd" clip-rule="evenodd" d="M170.762 107.974C170.595 106.48 167.605 105.707 163.923 107.774C160.241 109.841 158.949 113.074 159.208 114.04C159.467 115.006 162.808 113.599 165.15 112.683C169.092 111.14 171.109 111.082 170.762 107.974Z" fill="#D65132"/>
<path fill-rule="evenodd" clip-rule="evenodd" d="M166.548 110.44C163.148 111.546 161.248 112.003 161.406 110.764C161.564 109.525 163.395 108.053 163.923 107.774C160.241 109.842 158.949 113.074 159.208 114.04C159.467 115.006 162.808 113.599 165.15 112.683C169.092 111.14 171.109 111.083 170.762 107.974C170.587 108.762 169.95 109.334 166.548 110.44Z" fill="#BA422B"/>
<path fill-rule="evenodd" clip-rule="evenodd" d="M186.128 109.33C186.143 108.104 187.528 106.315 191.206 108.382C194.884 110.449 195.62 113.397 195.361 114.366C195.102 115.335 193.204 114.097 190.827 113.282C188.519 112.493 186.087 112.102 186.128 109.33Z" fill="#D65132"/>
<path fill-rule="evenodd" clip-rule="evenodd" d="M193.946 113.265C192.918 112.644 190.091 111.565 188.363 110.472C186.655 109.39 187.155 107.734 188.52 107.453C187.946 107.338 187.35 107.48 186.889 107.841C186.428 108.202 186.147 108.746 186.12 109.331C186.084 112.102 188.52 112.494 190.82 113.283C193.197 114.098 195.095 115.335 195.354 114.367C195.448 113.695 195.34 113.01 195.044 112.399C195.343 113.025 194.972 113.885 193.946 113.265Z" fill="#BA422B"/>
<path fill-rule="evenodd" clip-rule="evenodd" d="M191.54 131.208C186.469 131.208 182.34 126.774 182.34 121.324C182.34 115.874 186.465 111.44 191.54 111.44C196.615 111.44 200.74 115.874 200.74 121.324C200.74 126.774 196.611 131.208 191.54 131.208ZM191.54 112.398C186.998 112.398 183.301 116.398 183.301 121.324C183.301 126.25 187.001 130.25 191.54 130.25C196.079 130.25 199.779 126.25 199.779 121.324C199.779 116.398 196.083 112.398 191.54 112.398Z" fill="#19313A"/>
<ellipse cx="166.899" cy="123.169" rx="7.11961" ry="7.1196" fill="white"/>
<path opacity="0.2" fill-rule="evenodd" clip-rule="evenodd" d="M164.002 127.48C161.469 124.786 161.101 120.711 163.11 117.607L162.858 117.307C160.382 119.017 159.25 122.1 160.03 125.006C160.81 127.912 163.334 130.014 166.333 130.255C169.332 130.496 172.159 128.824 173.393 126.08C171.378 128.753 166.166 129.444 164.002 127.48Z" fill="#BAC4CA"/>
<path fill-rule="evenodd" clip-rule="evenodd" d="M159.877 124.337C159.877 124.337 160.107 119.293 164.162 117.631C168.728 115.76 172.662 118.211 173.471 120.45C173.551 119.815 173.39 119.172 173.02 118.65C171.848 116.85 168.963 114.631 164.397 116.156C160.892 117.17 158.87 120.83 159.877 124.337Z" fill="#19313A"/>
<path fill-rule="evenodd" clip-rule="evenodd" d="M174.017 123.169C174.018 122.474 173.917 121.784 173.717 121.12C173.396 120.031 172.551 119.175 171.467 118.84C170.099 118.394 168.598 118.698 167.511 119.64C165.397 121.666 164.911 124.862 166.327 127.425C166.836 128.159 167.553 128.725 168.386 129.049C169.611 129.476 170.972 129.162 171.886 128.242C173.251 126.907 174.019 125.078 174.017 123.169Z" fill="#19313A"/>
<path fill-rule="evenodd" clip-rule="evenodd" d="M167.542 128.603C167.805 128.784 168.087 128.934 168.384 129.05C169.609 129.477 170.97 129.163 171.884 128.243C172.513 127.623 173.022 126.892 173.384 126.086C171.903 127.746 169.765 128.667 167.542 128.603Z" fill="#002030"/>
<path fill-rule="evenodd" clip-rule="evenodd" d="M172.642 119.976C172.185 119.508 171.499 119.347 170.882 119.564C170.265 119.781 169.83 120.335 169.766 120.986C169.498 122.857 170.771 124.908 172.321 124.908C173.345 124.908 173.821 123.934 173.681 122.475C173.651 121.543 173.282 120.654 172.642 119.976Z" fill="white"/>
<path fill-rule="evenodd" clip-rule="evenodd" d="M183.168 122.492C183.132 122.195 182.985 121.922 182.758 121.727C182.352 121.427 181.85 121.284 181.347 121.327C180.415 121.299 179.495 121.538 178.694 122.015C178.355 122.217 178.125 122.562 178.069 122.953L177.894 124.165C178.914 123.439 180.137 123.054 181.389 123.065C183.046 123.065 183.397 123.978 183.397 123.978L183.168 122.492Z" fill="#19313A"/>
<path fill-rule="evenodd" clip-rule="evenodd" d="M181.347 121.324C180.415 121.295 179.494 121.534 178.694 122.012C178.355 122.214 178.125 122.559 178.069 122.95L177.894 124.162C178.914 123.436 180.137 123.051 181.389 123.062C183.046 123.062 183.397 123.975 183.397 123.975C182.807 122.152 180.091 122.808 179.983 122.357C179.875 121.906 180.316 121.412 181.347 121.324Z" fill="#002030"/>
<path fill-rule="evenodd" clip-rule="evenodd" d="M157.03 120.413L141.613 118.113L142.384 122.359L156.762 122.703C156.762 122.703 156.987 121.344 157.03 120.413Z" fill="#19313A"/>
<path fill-rule="evenodd" clip-rule="evenodd" d="M156.839 122.201L145.089 120.612C144.948 119.849 144.641 119.127 144.189 118.496L141.616 118.113L142.387 122.359L156.765 122.703C156.765 122.703 156.796 122.501 156.839 122.201Z" fill="#002030"/>
<path fill-rule="evenodd" clip-rule="evenodd" d="M180.195 125.473C179.432 125.834 178.711 128.33 179.363 130.473C179.827 132.125 181.332 133.268 183.048 133.273C184.802 133.333 185.756 132.313 185.711 131.024C185.673 129.897 184.32 129.876 183.048 128.324C181.87 126.895 181.621 124.798 180.195 125.473Z" fill="#EE9681"/>
<path fill-rule="evenodd" clip-rule="evenodd" d="M182.582 132.135C180.316 131.717 179.135 129.052 179.222 127.483C179.037 128.476 179.085 129.499 179.363 130.471C179.827 132.123 181.332 133.266 183.048 133.271C184.802 133.33 185.756 132.311 185.711 131.022C185.414 131.905 184.456 132.481 182.582 132.135Z" fill="#EB7C74"/>
<path fill-rule="evenodd" clip-rule="evenodd" d="M184.737 130.977C184.69 130.976 184.644 130.971 184.598 130.963C184.457 130.938 184.321 130.887 184.198 130.813C183.862 130.61 183.61 130.294 183.487 129.922C183.436 129.78 183.3 129.331 183.608 129.408C183.672 129.429 183.731 129.463 183.781 129.508C183.926 129.624 184.081 129.728 184.222 129.838C184.483 130.038 184.813 130.151 185.059 130.355C185.15 130.424 185.205 130.531 185.207 130.646C185.193 130.777 185.105 130.89 184.982 130.936C184.904 130.967 184.821 130.981 184.737 130.977Z" fill="#F8C6A3"/>
<path fill-rule="evenodd" clip-rule="evenodd" d="M167.574 132.615C161.338 132.615 156.283 127.56 156.283 121.324C156.283 115.088 161.338 110.033 167.574 110.033C173.81 110.033 178.865 115.088 178.865 121.324C178.859 127.559 173.806 132.611 167.573 132.615H167.574ZM167.574 110.99C163.394 110.99 159.626 113.507 158.026 117.369C156.426 121.23 157.31 125.675 160.265 128.631C163.221 131.587 167.666 132.471 171.527 130.871C175.389 129.272 177.907 125.504 177.907 121.324C177.901 115.619 173.278 110.996 167.573 110.99H167.574Z" fill="#19313A"/>
<path fill-rule="evenodd" clip-rule="evenodd" d="M177.1 139.494C174.281 139.106 171.563 138.182 169.092 136.771C166.718 135.517 164.902 135.335 164.482 137.171C163.873 139.82 166.47 146.571 175.182 147.88C180.758 148.718 184.808 147.092 187.063 145.263C188.206 144.375 189.062 143.169 189.524 141.797C190.024 140.197 189.396 138.284 185.467 139.043C182.717 139.621 179.896 139.773 177.1 139.494Z" fill="#C9434D"/>
<path fill-rule="evenodd" clip-rule="evenodd" d="M175.9 139.329C173.518 138.813 171.224 137.951 169.092 136.771C166.718 135.517 164.902 135.335 164.482 137.171C163.989 139.317 165.602 144.155 170.868 146.611C173.889 145.526 175.904 142.663 175.906 139.453C175.906 139.409 175.9 139.37 175.9 139.329Z" fill="#7C1423"/>
<path fill-rule="evenodd" clip-rule="evenodd" d="M184.033 139.293C181.74 139.656 179.411 139.723 177.102 139.493C174.532 139.157 172.047 138.351 169.769 137.115H169.769C169.82 138.081 170.06 139.028 170.476 139.902C171.14 140.883 174.319 142.102 176.112 142.357C179.612 142.857 182.363 141.964 182.667 141.626C183.184 140.886 183.641 140.106 184.033 139.293Z" fill="white"/>
<path opacity="0.2" fill-rule="evenodd" clip-rule="evenodd" d="M174.84 139.814C177.768 140.509 180.816 140.519 183.749 139.845C183.916 139.527 184.033 139.293 184.033 139.293C181.74 139.656 179.411 139.723 177.102 139.493C174.532 139.157 172.047 138.351 169.769 137.115H169.769C169.82 138.081 170.06 139.028 170.476 139.902C170.934 140.579 172.591 141.368 174.162 141.877C172.898 141.432 171.868 140.494 171.306 139.277C171.152 138.55 172.034 139.092 174.84 139.814Z" fill="#BAC4CA"/>
<path fill-rule="evenodd" clip-rule="evenodd" d="M180.727 147.908C179.974 146.279 175.51 142.108 166.527 143.246C168.716 145.841 171.816 147.497 175.19 147.875C177.023 148.165 178.89 148.176 180.727 147.908Z" fill="#EC6469"/>
<path fill-rule="evenodd" clip-rule="evenodd" d="M179.46 148.052C179.452 148.052 174.408 147.741 171.991 146.132C169.591 144.532 170.157 143.091 172.253 143.246C170.352 142.99 168.425 142.99 166.524 143.246C168.713 145.841 171.813 147.497 175.187 147.875C176.6 148.094 178.034 148.153 179.46 148.052Z" fill="#DB545B"/>
<path opacity="0.2" fill-rule="evenodd" clip-rule="evenodd" d="M176.623 144.975C175.305 144.236 173.832 143.816 172.323 143.748C170.238 143.959 174.414 145.634 176.23 146.294C178.558 147.141 178.83 146.12 176.623 144.975Z" fill="white"/>
<path opacity="0.2" fill-rule="evenodd" clip-rule="evenodd" d="M179.341 146.775C178.988 146.537 178.517 146.548 178.517 146.836C178.517 147.05 178.789 147.406 179.341 147.577C179.893 147.748 179.91 147.157 179.341 146.775Z" fill="white"/>
<path fill-rule="evenodd" clip-rule="evenodd" d="M194.767 126.607C196.32 124.907 196.206 119.136 194.014 117.433C191.356 115.397 187.563 115.836 185.44 118.425C183.317 121.013 183.63 124.819 186.146 127.027C188.663 129.234 192.477 129.049 194.767 126.607Z" fill="white"/>
<path opacity="0.2" fill-rule="evenodd" clip-rule="evenodd" d="M194.767 126.607C195.271 125.945 195.586 125.157 195.677 124.33C194.377 126.851 191.277 128.286 188.566 126.483C185.209 124.248 185.641 119.071 186.995 117.083C184.948 118.351 183.82 120.689 184.102 123.08C184.384 125.471 186.025 127.483 188.311 128.24C190.597 128.997 193.114 128.362 194.767 126.611V126.607Z" fill="#BAC4CA"/>
<path fill-rule="evenodd" clip-rule="evenodd" d="M184.178 123.654C184.178 123.654 183.992 119.002 187.732 117.469C189.742 116.577 192.05 116.66 193.991 117.694C194.474 117.975 194.86 118.397 195.097 118.904C195.046 118.032 194.618 117.226 193.925 116.695C192.62 115.717 190.702 115.159 187.949 116.104C182.426 118.007 184.178 123.654 184.178 123.654Z" fill="#19313A"/>
<path fill-rule="evenodd" clip-rule="evenodd" d="M194.146 118.568C192.976 118.22 191.708 118.488 190.78 119.282C188.936 121.049 188.513 123.837 189.749 126.072C190.565 127.303 192.041 127.923 193.492 127.645C194.623 127.222 195.455 126.245 195.692 125.062C196.238 123.309 196.136 121.417 195.403 119.733C195.167 119.185 194.711 118.762 194.146 118.568Z" fill="#19313A"/>
<path fill-rule="evenodd" clip-rule="evenodd" d="M195.693 125.063C195.828 124.609 195.921 124.143 195.971 123.672C195.253 125.77 193.314 127.207 191.098 127.282C191.828 127.681 192.675 127.809 193.491 127.646C194.622 127.224 195.455 126.247 195.693 125.063Z" fill="#002030"/>
<path fill-rule="evenodd" clip-rule="evenodd" d="M194.76 119.376C194.36 118.966 193.759 118.825 193.219 119.015C192.679 119.205 192.299 119.691 192.244 120.261C192.009 121.898 193.124 123.691 194.479 123.691C195.379 123.691 195.793 122.84 195.668 121.562C195.642 120.747 195.319 119.969 194.76 119.376Z" fill="white"/>
<path fill-rule="evenodd" clip-rule="evenodd" d="M141.611 118.114C139.697 116.953 135.011 116.154 131.949 119.155C128.887 122.156 129.109 130.407 134.67 133.188C137.723 134.865 141.488 134.522 144.189 132.322C144.877 126.491 144.902 120.263 141.611 118.114Z" fill="#F8C6A3"/>
<path fill-rule="evenodd" clip-rule="evenodd" d="M135.511 127.842C135.511 126.734 136.178 125.736 137.201 125.312C138.224 124.889 139.401 125.123 140.184 125.906C140.967 126.69 141.2 127.867 140.776 128.89C140.352 129.912 139.353 130.579 138.246 130.578C136.736 130.577 135.512 129.352 135.511 127.842Z" fill="#DD8964"/>
<path fill-rule="evenodd" clip-rule="evenodd" d="M138.247 130.573C140.83 130.553 142.812 127.727 142.393 124.332C141.899 120.332 138.639 119.627 136.628 119.739C134.523 119.824 132.829 121.498 132.719 123.602C133.498 121.869 135.461 121.005 137.265 121.602C140.616 122.496 139.533 127.502 138.415 127.839C137.297 128.176 138.247 130.573 138.247 130.573Z" fill="#DD8964"/>
<path fill-rule="evenodd" clip-rule="evenodd" d="M138.054 117.738C136.094 117.4 134.088 117.979 132.61 119.309C130.64 120.968 130.21 123.574 130.531 125.971C130.539 126.028 130.68 126.12 130.691 126.043C131.04 123.45 131.576 120.807 133.936 119.243C135.192 118.45 136.617 117.966 138.096 117.829C138.157 117.817 138.081 117.744 138.054 117.738Z" fill="#FDDEBC"/>
<path fill-rule="evenodd" clip-rule="evenodd" d="M145.147 133.201C144.781 132.238 144.373 130.578 144.373 130.578C143.509 131.361 142.504 131.972 141.411 132.378C138.434 133.475 135.118 133.139 132.421 131.468C133.059 132.174 133.822 132.757 134.671 133.187C137.145 134.533 140.121 134.586 142.642 133.33C146.332 142.707 152.053 146.623 160.558 150.158C162.776 151.047 165.085 151.687 167.445 152.067C157.176 150.212 148.677 143.021 145.147 133.201Z" fill="#F2A37C"/>
<path fill-rule="evenodd" clip-rule="evenodd" d="M173.626 149.026C172.033 148.623 170.506 147.994 169.092 147.157C169.092 147.157 170.047 149.057 173.471 149.843C177.293 150.721 179.226 149.496 179.226 149.496C177.346 149.615 175.459 149.457 173.626 149.026Z" fill="#F2A37C"/>
<path fill-rule="evenodd" clip-rule="evenodd" d="M101.545 212.389C101.489 216.14 100.199 226.223 107.938 234.079C115.677 241.935 130.571 238.886 133.559 238.179C135.818 237.755 138.125 237.636 140.416 237.827C142.01 237.795 146.161 236.772 146.865 233.607C146.865 233.607 142.409 235.951 139.126 230.792C135.529 224.717 135.631 217.142 139.39 211.166C142.874 205.816 150.335 204.657 152.373 204.412C152.373 204.412 151.867 201.984 148.537 201.563C146.72 201.332 142.037 203.509 135.612 205.375C125.999 208.171 113.543 212.607 101.545 212.389Z" fill="#4477BB"/>
<path fill-rule="evenodd" clip-rule="evenodd" d="M140.967 203.975C137.515 205.461 133.494 211.268 132.574 216.575C133.866 212.946 135.943 209.647 138.658 206.914C140.587 204.968 144.099 203.322 144.486 202.995C144.897 202.651 143.277 202.98 140.967 203.975Z" fill="#71ABDE"/>
<path fill-rule="evenodd" clip-rule="evenodd" d="M133.56 238.183C135.82 237.759 138.126 237.64 140.417 237.831C142.011 237.799 146.162 236.776 146.866 233.611C144.726 234.603 142.195 234.16 140.519 232.5L138.836 233.278C138.836 233.278 137.649 235.723 134.943 232.694C131.237 228.544 131.956 219.556 131.956 219.556C130.105 230.249 134.723 234.522 134.14 234.831C133.557 235.14 123.321 237.77 116.23 233.362C109.139 228.954 110.775 215.783 114.64 214.062C118.56 212.319 123.04 210.9 129.807 207.118C121.251 209.698 111.25 212.565 101.546 212.389C101.49 216.14 100.2 226.223 107.939 234.079C115.678 241.935 130.573 238.886 133.56 238.183Z" fill="#3E65AE"/>
<path fill-rule="evenodd" clip-rule="evenodd" d="M141.693 206.639C144.608 205.556 147.657 204.875 150.756 204.614C149.585 203.228 145.924 203.771 141.693 206.639Z" fill="#295296"/>
<path fill-rule="evenodd" clip-rule="evenodd" d="M152.374 204.416C155.28 203.977 166.421 203.524 172.274 206.872C178.407 210.383 179.182 214.972 178.704 219.988C178.226 225.004 146.869 233.611 146.869 233.611C146.869 233.611 145.86 235.728 142.169 234.978C138.478 234.228 135.819 230.813 134.999 223.848C134.179 216.883 137.457 209.509 141.691 206.641C144.402 204.976 147.592 204.263 150.754 204.616L152.374 204.416Z" fill="#F8C6A3"/>
<path fill-rule="evenodd" clip-rule="evenodd" d="M156.269 218.635C156.269 218.635 152.208 219.554 146.141 224.725C141.17 228.962 138.485 229.747 136.709 224.972C134.933 220.197 136.546 212.701 139.498 208.625C136.031 212.897 134.411 218.376 134.998 223.847C135.818 230.812 138.481 234.226 142.168 234.977C145.855 235.728 146.868 233.61 146.868 233.61C146.868 233.61 150.721 222.343 156.269 218.635Z" fill="#F2A37C"/>
<path fill-rule="evenodd" clip-rule="evenodd" d="M146.865 233.611C145.348 234.223 143.773 234.681 142.165 234.978C145.856 235.728 146.865 233.611 146.865 233.611Z" fill="#295296"/>
<path fill-rule="evenodd" clip-rule="evenodd" d="M178.7 219.985C178.242 226.412 171.462 250.351 169.98 256.528C168.688 261.913 167.88 265.172 167.88 265.172C159.628 271.704 151.438 275.123 143.313 275.256C143.313 275.256 143.713 261.891 143.713 254.371C143.713 246.851 143.977 240.322 146.55 232.803C147.331 230.519 151.085 221.856 156.272 218.632C163.183 214.339 169.999 218.41 178.7 219.985Z" fill="#F8C6A3"/>
<path fill-rule="evenodd" clip-rule="evenodd" d="M156.558 254.827C150.569 255.632 149.017 254.827 147.746 248.396C146.475 241.965 148.027 229.34 149.906 225.828C148.571 228.044 147.446 230.381 146.547 232.807C143.975 240.326 143.71 246.856 143.71 254.375C143.71 258.433 143.595 264.19 143.489 268.634L149.089 267.856L167.595 263.174C167.595 263.174 168.033 262.798 168.609 262.224C168.96 260.783 169.427 258.857 169.984 256.532C170.022 256.372 170.067 256.189 170.112 256.001C167.349 254.537 162.003 254.095 156.558 254.827Z" fill="#F2A37C"/>
<path fill-rule="evenodd" clip-rule="evenodd" d="M173.001 222.876C171.388 222.386 169.934 221.478 168.786 220.244C167.586 218.858 167.072 217.029 166.407 217.397C165.078 218.134 165.742 223.457 168.477 225.249C170.178 226.541 172.455 226.781 174.388 225.871C175.349 225.385 176.53 223.836 173.001 222.876Z" fill="#F2A37C"/>
<path opacity="0.3" fill-rule="evenodd" clip-rule="evenodd" d="M178.7 219.988C179.178 214.969 178.4 210.382 172.27 206.872C168.992 204.996 164.053 204.314 159.833 204.154C164.481 204.554 174.54 207.536 176.7 214.119C177.249 215.788 177.2 218.558 176.769 222.776C175.759 232.705 172.602 246.476 172.599 246.487C175.111 236.99 178.386 224.387 178.7 219.988Z" fill="white"/>
<path fill-rule="evenodd" clip-rule="evenodd" d="M167.886 265.174C168.313 263.39 168.968 261.668 169.834 260.051C170.353 259.36 170.353 258.151 167.155 257.459C163.957 256.767 155.397 257.199 149.09 259.274C142.783 261.349 141.572 263.596 141.918 264.546C142.264 265.496 143.771 271.193 143.318 275.259C151.421 275.156 159.613 271.684 167.886 265.174Z" fill="#EFF8FC"/>
<path fill-rule="evenodd" clip-rule="evenodd" d="M169.268 261.124V261.117C169.268 261.117 162.931 259.681 154.013 261.953C144.852 264.286 142.561 266.985 142.561 266.985C142.761 267.894 142.971 268.971 143.129 270.113C144.252 269.222 147.265 267.313 154.013 265.591C158.586 264.376 163.345 264.025 168.046 264.556C168.38 263.387 168.788 262.241 169.268 261.124V261.124Z" fill="#4477BB"/>
<g style="mix-blend-mode:multiply" opacity="0.2">
<path fill-rule="evenodd" clip-rule="evenodd" d="M154.331 273.091C153.7 272.842 152.996 272.855 152.374 273.126C148.48 274.418 147.611 271.484 147.593 269.5C147.627 267.411 147.335 265.328 146.727 263.329C146.41 262.627 146.395 261.825 146.685 261.112C146.976 260.398 147.547 259.835 148.265 259.555C142.671 261.548 141.582 263.638 141.913 264.546C142.259 265.497 143.766 271.193 143.313 275.259C147.084 275.184 150.813 274.45 154.331 273.091Z" fill="#242357"/>
</g>
<path fill-rule="evenodd" clip-rule="evenodd" d="M150.639 272.046C148.839 273.32 144.7 273.446 143.232 270.923C143.232 270.923 142.573 271.317 141.86 273.377C141.147 275.437 140.293 280.289 141.86 282.905C144.867 281.371 148.057 280.226 151.353 279.497C156.584 278.388 163.797 274.504 166.253 272.84C168.709 271.176 179.014 265.23 186.701 268.956C186.701 268.956 184.086 264.835 177.033 264.914C169.98 264.993 167.882 265.176 167.882 265.176C167.882 265.176 158.556 265.541 154.206 267.53C151.432 268.796 152.541 270.698 150.639 272.046Z" fill="#4477BB"/>
<g style="mix-blend-mode:multiply" opacity="0.2">
<path fill-rule="evenodd" clip-rule="evenodd" d="M166.252 272.838C168.102 271.627 170.064 270.595 172.11 269.758C171.638 267.621 170.916 265.507 169.871 265.071C169.514 265.084 169.21 265.098 168.958 265.11H168.947C165.988 266.561 165.797 270.838 165.797 270.838C164.137 271.1 158.797 274.399 156.844 275.255C153.017 276.93 150.868 276.699 149.966 276.047C148.697 275.131 148.779 272.787 148.779 272.787C146.807 273.187 144.304 272.766 143.229 270.92C143.229 270.92 142.57 271.314 141.857 273.374C141.144 275.434 140.29 280.286 141.857 282.902C144.864 281.368 148.054 280.223 151.35 279.494C156.583 278.386 163.795 274.502 166.252 272.838Z" fill="#242357"/>
</g>
<path fill-rule="evenodd" clip-rule="evenodd" d="M186.692 268.945C179.414 265.43 169.799 270.563 166.715 272.536C166.859 272.436 165.623 268.246 168.946 265.114C172.269 261.982 184.792 262.222 186.692 268.945Z" fill="#EFF8FC"/>
<path fill-rule="evenodd" clip-rule="evenodd" d="M186.692 268.942C183.592 263.273 174.779 265.442 172.454 266.355C170.129 267.268 167.091 267.955 167.487 267.016C166.695 268.74 166.427 270.658 166.715 272.533C169.801 270.563 179.416 265.43 186.692 268.942Z" fill="#A9CBD3"/>
<path fill-rule="evenodd" clip-rule="evenodd" d="M186.694 268.946C185.442 267.535 183.699 266.654 181.821 266.48C177.155 266.015 172.475 267.21 168.604 269.857C164.716 272.399 160.604 274.582 156.32 276.378C152.303 278.124 143.92 278.765 141.376 281.95C141.376 281.95 140.696 283.073 140.89 286.077C140.84 288.641 142.485 290.932 144.931 291.704C147.705 292.813 155.79 293.367 165.855 290.04C175.92 286.713 182.555 286.229 186.699 280.291C190.302 275.126 188.031 270.498 186.694 268.946Z" fill="#DEF1F8"/>
<mask id="mask1_1_7" style="mask-type:alpha" maskUnits="userSpaceOnUse" x="140" y="266" width="49" height="27">
<path fill-rule="evenodd" clip-rule="evenodd" d="M186.694 268.946C185.442 267.535 183.699 266.654 181.821 266.48C177.155 266.015 172.475 267.21 168.604 269.857C164.716 272.399 160.604 274.582 156.32 276.378C152.303 278.124 143.92 278.765 141.376 281.95C141.376 281.95 140.696 283.073 140.89 286.077C140.84 288.641 142.485 290.932 144.931 291.704C147.705 292.813 155.79 293.367 165.855 290.04C175.92 286.713 182.555 286.229 186.699 280.291C190.302 275.126 188.031 270.498 186.694 268.946Z" fill="white"/>
</mask>
<g mask="url(#mask1_1_7)">
<path d="M189.602 272.537C187.881 269.155 182.402 266.359 174.783 268.792C167.006 271.275 165.647 274.605 157.364 277.737C149.081 280.869 141.906 279.875 139.736 286.937" stroke="#4477BB"/>
</g>
<path fill-rule="evenodd" clip-rule="evenodd" d="M181.589 269.506C176.191 269.428 170.92 271.149 166.607 274.397C162.835 277.132 158.6 279.165 154.107 280.397C150.198 281.519 148.078 281.386 144.236 283.14C142.202 283.885 140.962 285.946 141.254 288.092C141.831 289.815 143.198 291.159 144.931 291.706C147.705 292.815 155.79 293.369 165.855 290.042C175.92 286.715 182.555 286.231 186.699 280.293C188.317 278.144 188.954 275.414 188.454 272.771C187.638 271.129 186.526 269.622 181.589 269.506Z" fill="#E8914F"/>
<path fill-rule="evenodd" clip-rule="evenodd" d="M151.279 291.124C149.312 291.221 147.343 290.965 145.467 290.367C144.169 289.984 143.128 289.013 142.655 287.745C142.547 286.278 143.442 284.923 144.833 284.445C146.683 283.614 148.632 283.024 150.633 282.688C151.747 282.462 153.009 282.205 154.5 281.777C159.158 280.504 163.547 278.397 167.453 275.558C171.375 272.602 176.142 270.983 181.053 270.939C181.217 270.939 181.382 270.939 181.546 270.945C185.746 271.045 186.532 272.175 187.075 273.234C187.427 275.438 186.863 277.691 185.515 279.47C182.624 283.615 178.359 284.843 171.903 286.703C169.959 287.262 167.755 287.897 165.403 288.677C160.854 290.237 156.086 291.064 151.277 291.128L151.279 291.124Z" fill="#D1783B"/>
<mask id="mask2_1_7" style="mask-type:alpha" maskUnits="userSpaceOnUse" x="142" y="270" width="46" height="22">
<path fill-rule="evenodd" clip-rule="evenodd" d="M151.279 291.124C149.312 291.221 147.343 290.965 145.467 290.367C144.169 289.984 143.127 289.013 142.655 287.745C142.547 286.278 143.441 284.923 144.833 284.445C146.683 283.614 148.632 283.024 150.633 282.688C151.747 282.462 153.009 282.205 154.5 281.777C159.158 280.504 163.547 278.397 167.453 275.558C171.374 272.602 176.142 270.983 181.053 270.939C181.217 270.939 181.382 270.939 181.546 270.945C185.746 271.045 186.532 272.175 187.075 273.234C187.426 275.438 186.863 277.691 185.515 279.47C182.624 283.615 178.359 284.843 171.903 286.703C169.959 287.262 167.755 287.897 165.403 288.677C160.854 290.237 156.085 291.064 151.277 291.128L151.279 291.124Z" fill="white"/>
</mask>
<g mask="url(#mask2_1_7)">
<path fill-rule="evenodd" clip-rule="evenodd" d="M183.832 283.132L185.41 271.165L186.359 271.29L184.782 283.257L183.832 283.132Z" fill="#C66D32"/>
<path fill-rule="evenodd" clip-rule="evenodd" d="M179.764 285.49L181.761 270.344L182.71 270.469L180.714 285.615L179.764 285.49Z" fill="#C66D32"/>
<path fill-rule="evenodd" clip-rule="evenodd" d="M175.844 286.853L177.879 271.192L178.829 271.315L176.794 286.976L175.844 286.853Z" fill="#C66D32"/>
<path fill-rule="evenodd" clip-rule="evenodd" d="M171.904 288.035L174.129 271.688L175.078 271.817L172.852 288.164L171.904 288.035Z" fill="#C66D32"/>
<path fill-rule="evenodd" clip-rule="evenodd" d="M168.001 289.286L169.982 273.813L170.932 273.934L168.951 289.408L168.001 289.286Z" fill="#C66D32"/>
<path fill-rule="evenodd" clip-rule="evenodd" d="M164.155 289.841L165.949 276.24L166.899 276.365L165.105 289.966L164.155 289.841Z" fill="#C66D32"/>
<path fill-rule="evenodd" clip-rule="evenodd" d="M160.271 290.925L161.848 278.958L162.798 279.084L161.221 291.05L160.271 290.925Z" fill="#C66D32"/>
<path fill-rule="evenodd" clip-rule="evenodd" d="M156.321 292.055L157.899 280.088L158.848 280.213L157.271 292.18L156.321 292.055Z" fill="#C66D32"/>
<path fill-rule="evenodd" clip-rule="evenodd" d="M152.582 292.171L153.982 281.549L154.932 281.674L153.532 292.296L152.582 292.171Z" fill="#C66D32"/>
<path fill-rule="evenodd" clip-rule="evenodd" d="M148.829 291.983L150.076 282.527L151.025 282.652L149.779 292.108L148.829 291.983Z" fill="#C66D32"/>
<path fill-rule="evenodd" clip-rule="evenodd" d="M145.166 291.047L146.169 283.448L147.118 283.573L146.116 291.172L145.166 291.047Z" fill="#C66D32"/>
<path fill-rule="evenodd" clip-rule="evenodd" d="M142.945 285.796L143.318 284.915L158.556 291.371L158.182 292.253L142.945 285.796Z" fill="#C66D32"/>
<path fill-rule="evenodd" clip-rule="evenodd" d="M148.455 283.437L148.824 282.554L165.719 289.619L165.35 290.502L148.455 283.437Z" fill="#C66D32"/>
<path fill-rule="evenodd" clip-rule="evenodd" d="M156.036 281.506L156.418 280.629L172.572 287.66L172.19 288.538L156.036 281.506Z" fill="#C66D32"/>
<path fill-rule="evenodd" clip-rule="evenodd" d="M161.535 279.136L161.909 278.256L178.989 285.514L178.615 286.395L161.535 279.136Z" fill="#C66D32"/>
<path fill-rule="evenodd" clip-rule="evenodd" d="M166.534 276.17L166.918 275.293L183.965 282.757L183.582 283.634L166.534 276.17Z" fill="#C66D32"/>
<path fill-rule="evenodd" clip-rule="evenodd" d="M171.067 273.568L171.44 272.685L187.542 279.484L187.169 280.367L171.067 273.568Z" fill="#C66D32"/>
<path fill-rule="evenodd" clip-rule="evenodd" d="M177.463 271.374L177.836 270.492L188.78 275.114L188.407 275.996L177.463 271.374Z" fill="#C66D32"/>
</g>
<path fill-rule="evenodd" clip-rule="evenodd" d="M187.083 273.23C187.038 273.143 186.99 273.055 186.94 272.968C186.913 274.744 186.33 276.467 185.274 277.896C182.384 282.041 178.119 283.27 171.662 285.129C169.718 285.689 167.514 286.323 165.162 287.103C160.613 288.663 155.845 289.491 151.036 289.554C149.069 289.652 147.1 289.395 145.224 288.797C144.171 288.459 143.276 287.753 142.701 286.809C142.633 287.117 142.62 287.434 142.662 287.746C143.135 289.014 144.176 289.985 145.474 290.368C147.351 290.966 149.319 291.222 151.286 291.125C156.095 291.061 160.863 290.234 165.412 288.674C167.769 287.894 169.972 287.26 171.912 286.7C178.368 284.84 182.633 283.611 185.524 279.467C186.872 277.687 187.435 275.435 187.083 273.23Z" fill="#C66D32"/>
<path d="M185.449 270.935L183.449 282.903" stroke="#E8914F"/>
<path d="M181.382 270.115L179.382 285.262" stroke="#E8914F"/>
<path d="M177.499 270.963L175.45 286.622" stroke="#E8914F"/>
<path d="M173.738 271.46L171.519 287.808" stroke="#E8914F"/>
<path d="M169.616 273.584L167.616 289.056" stroke="#E8914F"/>
<path d="M165.773 276.012L163.773 289.614" stroke="#E8914F"/>
<path d="M161.888 278.729L159.888 290.697" stroke="#E8914F"/>
<path d="M157.938 279.858L155.938 291.826" stroke="#E8914F"/>
<path d="M154.198 281.32L152.198 291.943" stroke="#E8914F"/>
<path d="M150.445 282.298L148.445 291.755" stroke="#E8914F"/>
<path d="M146.782 283.218L144.782 290.818" stroke="#E8914F"/>
<path d="M142.269 285.064L157.507 291.521" stroke="#E8914F"/>
<path d="M147.777 282.705L164.665 289.765" stroke="#E8914F"/>
<path d="M155.364 280.776L171.519 287.808" stroke="#E8914F"/>
<path d="M160.86 278.404L177.944 285.67" stroke="#E8914F"/>
<path d="M165.865 275.44L182.913 282.903" stroke="#E8914F"/>
<path d="M170.391 272.835L186.494 279.634" stroke="#E8914F"/>
<path d="M176.787 270.641L187.736 275.258" stroke="#E8914F"/>
<circle cx="307.153" cy="97.7613" r="25.1691" fill="#7A60A6"/>
<path fill-rule="evenodd" clip-rule="evenodd" d="M331.644 91.983C330.255 86.0711 326.764 80.8657 321.822 77.336C321.998 77.926 325.398 89.859 315.722 101.914C306.022 114.002 288.347 113.523 287.56 113.495C294.915 122.659 307.636 125.508 318.196 120.354C328.757 115.2 334.339 103.419 331.64 91.983H331.644Z" fill="#6D5298"/>
<path fill-rule="evenodd" clip-rule="evenodd" d="M329.766 92.004C332.097 101.903 327.761 112.173 319.041 117.406C310.321 122.638 299.218 121.633 291.58 114.918C300.838 119.6 312.033 118.023 319.637 110.965C327.242 103.907 329.647 92.86 325.666 83.279C327.627 85.8693 329.023 88.8413 329.766 92.004H329.766Z" fill="#5F4589"/>
<path opacity="0.25" fill-rule="evenodd" clip-rule="evenodd" d="M285.419 95.362C284.42 91.115 287.052 86.8618 291.299 85.8622C295.546 84.8627 299.799 87.4952 300.799 91.7421C301.798 95.9891 299.166 100.242 294.919 101.242C292.88 101.722 290.733 101.372 288.951 100.27C287.17 99.1668 285.899 97.4015 285.419 95.362Z" fill="#F298BB"/>
<path opacity="0.25" fill-rule="evenodd" clip-rule="evenodd" d="M287.203 92.666C286.781 90.873 287.48 89.0023 288.975 87.9261C290.47 86.85 292.466 86.7803 294.032 87.7497C295.599 88.7191 296.427 90.5365 296.131 92.3545C295.834 94.1725 294.472 95.6331 292.679 96.055C290.231 96.6306 287.78 95.1136 287.203 92.666Z" fill="#F298BB"/>
<path opacity="0.25" fill-rule="evenodd" clip-rule="evenodd" d="M304.914 85.62C303.915 81.373 306.547 77.1198 310.794 76.1203C315.041 75.1207 319.294 77.7532 320.294 82.0001C321.293 86.2471 318.661 90.5003 314.414 91.5C312.375 91.98 310.228 91.6302 308.446 90.5275C306.665 89.4248 305.394 87.6595 304.914 85.62Z" fill="#F298BB"/>
<path opacity="0.25" fill-rule="evenodd" clip-rule="evenodd" d="M307.231 82.477C306.837 80.8026 307.49 79.0555 308.886 78.0504C310.282 77.0454 312.146 76.9803 313.609 77.8856C315.072 78.7909 315.845 80.4883 315.568 82.1861C315.292 83.8839 314.02 85.2479 312.345 85.642C310.059 86.18 307.769 84.7631 307.231 82.477Z" fill="#F298BB"/>
<path opacity="0.25" fill-rule="evenodd" clip-rule="evenodd" d="M295.194 80.942C294.831 79.4061 295.429 77.8028 296.71 76.8802C297.99 75.9577 299.701 75.8979 301.042 76.7287C302.384 77.5594 303.093 79.1171 302.838 80.6746C302.583 82.2321 301.415 83.4824 299.878 83.842C298.872 84.0787 297.814 83.9062 296.935 83.3623C296.057 82.8184 295.43 81.9478 295.194 80.942Z" fill="#F298BB"/>
<path opacity="0.25" fill-rule="evenodd" clip-rule="evenodd" d="M296.048 79.975C295.852 79.1479 296.174 78.2843 296.864 77.7873C297.553 77.2904 298.474 77.2581 299.197 77.7056C299.92 78.153 300.301 78.992 300.164 79.8308C300.026 80.6696 299.397 81.3427 298.569 81.536C297.442 81.7991 296.315 81.101 296.048 79.975Z" fill="#F298BB"/>
<path opacity="0.15" fill-rule="evenodd" clip-rule="evenodd" d="M315.478 77.342C312.441 75.73 300.992 73.525 292.448 82.342C285.486 89.6169 283.985 100.541 288.727 109.424C288.003 106.348 287.757 95.624 294.479 87.483C301.201 79.342 310.957 77.784 315.478 77.342Z" fill="#D6B6D8"/>
<path fill-rule="evenodd" clip-rule="evenodd" d="M315.477 77.342C315.477 77.342 301.572 73.119 292.57 83.602C283.568 94.085 287.708 107.687 288.727 109.419C288.727 109.419 280.25 95.063 291.343 82.528C301.699 70.826 315.477 77.342 315.477 77.342Z" fill="#D7CEE7"/>
<path fill-rule="evenodd" clip-rule="evenodd" d="M350.575 122.552C349.205 125.439 337.991 123.182 322.796 117.46C316.52 115.095 309.56 112.136 302.335 108.708C294.852 105.156 287.935 101.503 281.994 98.022C268.32 90.016 259.757 82.929 261.109 80.082C262.393 77.382 272.291 79.188 286.009 84.118C285.538 84.8504 285.104 85.606 284.709 86.382C279.144 84.777 275.456 84.406 274.868 85.646C274.25 86.946 277.168 89.774 282.386 93.302C289.287 97.797 296.501 101.793 303.972 105.259C311.164 108.74 318.584 111.729 326.181 114.205C332.602 116.2 336.929 116.761 337.57 115.411C338.18 114.123 335.325 111.335 330.195 107.852C330.539 107.068 330.844 106.267 331.108 105.452C343.956 113.113 351.878 119.807 350.575 122.552Z" fill="#D5E9F9"/>
<path fill-rule="evenodd" clip-rule="evenodd" d="M350 123.358C348.629 126.245 337.415 123.988 322.221 118.266C315.944 115.901 308.985 112.942 301.759 109.514C294.276 105.962 287.359 102.309 281.418 98.8279C267.743 90.822 259.181 83.735 260.532 80.888C261.816 78.188 271.774 80.028 285.489 84.957C285.046 85.6913 284.647 86.4517 284.295 87.2339C278.73 85.6279 274.88 85.2109 274.295 86.451C273.678 87.751 276.595 90.579 281.814 94.1069C288.715 98.6021 295.929 102.598 303.4 106.064C310.592 109.545 318.012 112.534 325.609 115.01C332.03 117.005 336.357 117.566 336.999 116.216C337.609 114.928 334.906 112.231 329.775 108.748C330.119 107.964 330.518 107.221 330.782 106.406C343.627 114.066 351.303 120.614 350 123.358Z" fill="#F49639"/>
<path fill-rule="evenodd" clip-rule="evenodd" d="M350.575 122.552C349.205 125.439 337.991 123.182 322.796 117.46C316.52 115.095 309.56 112.136 302.335 108.708C294.852 105.156 287.935 101.503 281.994 98.022C268.32 90.016 259.757 82.929 261.109 80.082C262.393 77.382 272.291 79.188 286.009 84.118C285.538 84.8504 285.104 85.606 284.709 86.382C279.144 84.777 275.456 84.406 274.868 85.646C274.25 86.946 277.168 89.774 282.386 93.302C289.287 97.797 296.501 101.793 303.972 105.259C311.164 108.74 318.584 111.729 326.181 114.205C332.602 116.2 336.929 116.761 337.57 115.411C338.18 114.123 335.325 111.335 330.195 107.852C330.539 107.068 330.844 106.267 331.108 105.452C343.956 113.113 351.878 119.807 350.575 122.552Z" fill="#FFE568"/>
<path fill-rule="evenodd" clip-rule="evenodd" d="M344.656 115.359C347.212 117.841 351.363 120.759 349.295 122.5C347.227 124.241 330.995 121.1 300.118 106.738C300.118 106.738 331.469 118.871 339.574 120.297C347.615 121.711 348.744 120.624 344.656 115.359Z" fill="#FCC231"/>
<path fill-rule="evenodd" clip-rule="evenodd" d="M275.904 81.482C272.487 80.791 264.064 78.726 262.449 80.296C260.834 81.866 270.467 90.077 273.944 92.0359C273.944 92.0359 265.302 85.0599 264.928 81.843C264.648 79.441 275.904 81.482 275.904 81.482Z" fill="#FFEDB2"/>
<path fill-rule="evenodd" clip-rule="evenodd" d="M284.637 85.425C282.472 84.7526 280.265 84.2202 278.031 83.831C274.847 83.325 271.046 82.82 271.437 84.985C271.828 87.15 274.728 89.806 280.602 93.885C286.476 97.964 296.394 103.539 296.394 103.539C296.394 103.539 281.877 96.249 276.317 92.349C270.757 88.449 267.401 84.507 268.177 82.81C269.145 80.693 277.956 82.11 285.043 84.91L284.637 85.425Z" fill="#FFDA60"/>
<path fill-rule="evenodd" clip-rule="evenodd" d="M68.3059 127.774C68.3059 127.774 42.4619 131.563 21.5459 124.153C20.9606 123.943 20.6403 123.313 20.8149 122.716C21.1609 121.529 21.7429 119.439 22.3149 116.961C23.652 111.18 68.3059 127.774 68.3059 127.774Z" fill="#A9CBD3"/>
<path fill-rule="evenodd" clip-rule="evenodd" d="M22.3149 116.961C21.9609 118.493 21.6039 119.876 21.3009 120.991C42.1859 129.274 68.3009 127.774 68.3009 127.774C68.3009 127.774 23.6509 111.18 22.3149 116.961Z" fill="#8CB8BF"/>
<path fill-rule="evenodd" clip-rule="evenodd" d="M26.5709 92.613C26.5709 92.613 26.7709 103.863 23.695 109.649C20.619 115.435 57.768 128.361 68.3069 127.775C68.3069 127.775 53.8419 115.587 45.9069 105.838C40.7582 99.7821 34.0815 95.2156 26.5709 92.613Z" fill="#CCE4EA"/>
<path opacity="0.5" fill-rule="evenodd" clip-rule="evenodd" d="M23.695 109.649C20.621 115.435 57.768 128.361 68.3069 127.775C51.4719 122.375 28.4139 103.227 28.4139 103.227C28.2863 99.6215 27.6661 96.0504 26.5709 92.6129C26.5709 92.613 26.7689 103.863 23.695 109.649Z" fill="#A9CBD3"/>
<path fill-rule="evenodd" clip-rule="evenodd" d="M15.2399 95.714C14.1638 95.908 9.15784 96.74 3.86793 97.202C-4.08105 97.896 -10.941 96.537 -10.05 98.668C-9.255 100.568 3.16297 112.757 20.985 119.448C38.807 126.139 61.074 128.348 68.306 127.773C58.0525 123.987 48.176 119.249 38.806 113.621C24.0579 104.635 18.3269 95.155 15.2399 95.714Z" fill="#F7FCFE"/>
<path fill-rule="evenodd" clip-rule="evenodd" d="M68.306 127.774C68.306 127.774 58.582 117.738 52.922 106.818C45.51 92.512 43.751 81.536 42.9659 80.488C42.1809 79.44 38.8799 81.948 33.6079 85.988C31.0802 87.9942 28.7258 90.2097 26.5699 92.611C26.5699 92.611 51.616 122.005 68.306 127.774Z" fill="#F7FCFE"/>
<path fill-rule="evenodd" clip-rule="evenodd" d="M11.2709 97.958C2.69288 100.103 -7.6881 98.344 -5.29308 101.286C-2.89806 104.228 20.757 122.505 54.596 125.524C54.596 125.524 25.026 118.169 11.9359 110.202C-3.44408 100.842 2.25587 100.956 4.68898 100.402C7.00416 99.9614 9.22901 99.1353 11.2709 97.958Z" fill="white"/>
<path fill-rule="evenodd" clip-rule="evenodd" d="M63.4388 124.561C63.4388 124.561 40.4198 106.775 29.0889 93.038C29.0889 93.038 33.7888 86.712 39.6489 83.582C39.6489 83.582 34.8059 88.004 33.3309 90.882C32.6479 92.216 33.9989 95.02 36.2799 97.958C41.6849 104.923 63.4388 124.561 63.4388 124.561Z" fill="white"/>
<path fill-rule="evenodd" clip-rule="evenodd" d="M279.023 169.475C279.023 169.475 259.768 177.74 242.023 176.307C241.526 176.264 241.148 175.842 241.16 175.343C241.184 174.351 241.203 172.611 241.137 170.573C240.984 165.814 279.023 169.475 279.023 169.475Z" fill="#A9CBD3"/>
<path fill-rule="evenodd" clip-rule="evenodd" d="M241.141 170.572C241.182 171.833 241.19 172.979 241.185 173.905C259.085 176.021 279.023 169.475 279.023 169.475C279.023 169.475 240.984 165.814 241.141 170.572Z" fill="#8CB8BF"/>
<path fill-rule="evenodd" clip-rule="evenodd" d="M239.421 150.819C239.421 150.819 241.894 159.499 240.703 164.619C239.512 169.739 270.975 172.1 279.024 169.474C279.024 169.474 265.298 163.007 257.139 157.084C251.898 153.451 245.781 151.287 239.421 150.819Z" fill="#CCE4EA"/>
<path opacity="0.5" fill-rule="evenodd" clip-rule="evenodd" d="M240.703 164.619C239.513 169.738 270.975 172.1 279.024 169.474C264.861 168.761 243.037 158.667 243.037 158.667C242.195 155.898 240.978 153.258 239.421 150.819C239.421 150.819 241.894 159.498 240.703 164.619Z" fill="#A9CBD3"/>
<path fill-rule="evenodd" clip-rule="evenodd" d="M231.279 155.559C230.485 155.932 226.779 157.608 222.77 159.059C216.751 161.236 211.153 161.596 212.283 163.065C213.291 164.375 225.431 171.265 240.626 172.777C255.821 174.289 273.54 171.414 279.026 169.477C270.297 168.655 261.664 167.017 253.24 164.586C239.95 160.653 233.554 154.489 231.279 155.559Z" fill="#F7FCFE"/>
<path fill-rule="evenodd" clip-rule="evenodd" d="M279.024 169.475C279.024 169.475 269.417 163.699 262.777 156.397C254.082 146.835 250.457 138.688 249.631 138.037C248.805 137.386 246.765 140.012 243.512 144.237C241.965 146.313 240.597 148.517 239.421 150.823C239.421 150.823 264.897 168.442 279.024 169.475Z" fill="#F7FCFE"/>
<path fill-rule="evenodd" clip-rule="evenodd" d="M228.662 158.117C222.455 161.547 214.044 162.324 216.507 164.111C218.97 165.898 241.076 175.19 267.931 170.556C267.931 170.556 243.492 170.951 231.702 167.472C217.848 163.386 222.292 162.3 224.063 161.365C225.767 160.548 227.322 159.45 228.662 158.117Z" fill="white"/>
<path fill-rule="evenodd" clip-rule="evenodd" d="M274.587 167.986C274.587 167.986 253.076 158.944 241.46 150.629C241.46 150.629 243.803 144.755 247.698 141.121C247.698 141.121 244.855 145.547 244.305 148.082C244.05 149.257 245.675 151.153 248.049 152.96C253.675 157.246 274.587 167.986 274.587 167.986Z" fill="white"/>
<path fill-rule="evenodd" clip-rule="evenodd" d="M2.55994 168.712H-7.47204C-8.29101 161.916 -14.0559 156.802 -20.901 156.799V150.489C-20.9036 142.79 -27.1434 136.553 -34.8387 136.555L-34.835 136.555C-42.5305 136.555 -48.7689 142.794 -48.7689 150.489V154.611C-50.7264 150.628 -55.1724 148.521 -59.4948 149.528C-63.8171 150.536 -66.8738 154.391 -66.8688 158.829L-66.8689 168.713H-78.6029C-80.9083 168.714 -82.777 170.583 -82.777 172.888H-82.7769C-82.777 175.192 -80.9089 177.061 -78.604 177.062H2.55908C4.8645 177.062 6.73352 175.193 6.73413 172.888C6.73463 171.782 6.2953 170.72 5.51258 169.936C4.72999 169.153 3.66822 168.713 2.56092 168.712H2.55994Z" fill="white"/>
<circle cx="191.097" cy="57.516" r="7.327" fill="white" fill-opacity="0.2"/>
<path fill-rule="evenodd" clip-rule="evenodd" d="M191.097 66.103C190.413 66.103 189.859 65.5489 189.858 64.865V50.165C189.859 49.4811 190.413 48.927 191.097 48.927C191.425 48.927 191.74 49.0574 191.972 49.2896C192.205 49.5218 192.335 49.8366 192.335 50.165V64.865C192.335 65.1939 192.204 65.5088 191.972 65.7408C191.74 65.9729 191.425 66.1032 191.096 66.103H191.097Z" fill="white" fill-opacity="0.298039"/>
<path fill-rule="evenodd" clip-rule="evenodd" d="M199.683 57.515C199.683 58.1989 199.129 58.7534 198.445 58.754H183.745C183.061 58.7534 182.507 58.1989 182.507 57.515C182.507 57.186 182.638 56.8712 182.87 56.6392C183.102 56.4071 183.417 56.2768 183.746 56.277H198.445C198.773 56.277 199.088 56.4074 199.32 56.6396C199.552 56.8717 199.683 57.1866 199.683 57.515Z" fill="white" fill-opacity="0.298039"/>
<path fill-rule="evenodd" clip-rule="evenodd" d="M196.294 57.515C196.294 58.1993 195.739 58.754 195.055 58.754H187.138C186.454 58.754 185.899 58.1993 185.899 57.515C185.9 56.8315 186.455 56.278 187.138 56.278H195.055C195.739 56.278 196.293 56.8315 196.294 57.515Z" fill="white"/>
<path fill-rule="evenodd" clip-rule="evenodd" d="M191.097 62.713C190.413 62.713 189.858 62.1583 189.858 61.474V53.553C189.858 52.8687 190.413 52.314 191.097 52.314C191.781 52.3145 192.335 52.8691 192.335 53.553V61.47C192.336 61.7992 192.206 62.1152 191.974 62.3484C191.742 62.5816 191.426 62.7128 191.097 62.713Z" fill="white"/>
<path fill-rule="evenodd" clip-rule="evenodd" d="M235.469 107.154C235.469 106.063 236.353 105.179 237.444 105.179C238.534 105.179 239.419 106.063 239.419 107.153C239.419 108.244 238.536 109.128 237.445 109.129C236.921 109.129 236.418 108.921 236.048 108.551C235.677 108.18 235.469 107.678 235.469 107.154Z" fill="#FFEDB2"/>
<path fill-rule="evenodd" clip-rule="evenodd" d="M103.623 48.93C103.623 48.1305 104.105 47.4105 104.843 47.105C105.581 46.7996 106.431 46.9689 106.995 47.5339C107.56 48.099 107.729 48.9485 107.422 49.6864C107.117 50.4243 106.396 50.9053 105.597 50.905C104.507 50.9046 103.623 50.0205 103.623 48.93Z" fill="#FFEDB2"/>
<path fill-rule="evenodd" clip-rule="evenodd" d="M95.3669 99.633C95.3666 98.8339 95.8477 98.113 96.5859 97.8068C97.3243 97.5005 98.1744 97.6693 98.7397 98.2343C99.3052 98.7993 99.4745 99.6492 99.1687 100.388C98.863 101.126 98.1425 101.608 97.3431 101.608C96.8191 101.608 96.3164 101.4 95.9458 101.03C95.5752 100.659 95.3669 100.157 95.3669 99.633Z" fill="#FFEDB2"/>
<path fill-rule="evenodd" clip-rule="evenodd" d="M214.091 44.774C214.091 43.9755 214.572 43.2548 215.31 42.9487C216.048 42.6426 216.898 42.8113 217.464 43.3763C218.029 43.9412 218.198 44.7911 217.893 45.5296C217.587 46.2681 216.867 46.7497 216.068 46.75C215.543 46.7502 215.041 46.542 214.67 46.1714C214.299 45.8008 214.091 45.2982 214.091 44.774Z" fill="#FFEDB2"/>
</g>
<defs>
<linearGradient id="paint0_linear_1_7" x1="94.2476" y1="231.886" x2="94.2476" y2="309.141" gradientUnits="userSpaceOnUse">
<stop stop-color="#F59D10" stop-opacity="0.501961"/>
<stop offset="0.144" stop-color="#F59D10" stop-opacity="0.470588"/>
<stop offset="0.361" stop-color="#F59D12" stop-opacity="0.384314"/>
<stop offset="0.624" stop-color="#F69E16" stop-opacity="0.247059"/>
<stop offset="0.921" stop-color="#F69F1B" stop-opacity="0.054902"/>
<stop offset="1" stop-color="#F7A01D" stop-opacity="0.01"/>
</linearGradient>
<linearGradient id="paint1_linear_1_7" x1="176.336" y1="130.226" x2="176.336" y2="110.479" gradientUnits="userSpaceOnUse">
<stop stop-color="#F2A37C"/>
<stop offset="0.09" stop-color="#F2A47D" stop-opacity="0.968627"/>
<stop offset="0.225" stop-color="#F2A780" stop-opacity="0.882353"/>
<stop offset="0.39" stop-color="#F3AC86" stop-opacity="0.741176"/>
<stop offset="0.577" stop-color="#F4B28D" stop-opacity="0.54902"/>
<stop offset="0.783" stop-color="#F6BB97" stop-opacity="0.298039"/>
<stop offset="1" stop-color="#F8C6A3" stop-opacity="0.01"/>
</linearGradient>
<linearGradient id="paint2_linear_1_7" x1="195.755" y1="128.563" x2="195.755" y2="110.446" gradientUnits="userSpaceOnUse">
<stop stop-color="#F2A37C"/>
<stop offset="0.09" stop-color="#F2A47D" stop-opacity="0.968627"/>
<stop offset="0.225" stop-color="#F2A780" stop-opacity="0.882353"/>
<stop offset="0.39" stop-color="#F3AC86" stop-opacity="0.741176"/>
<stop offset="0.577" stop-color="#F4B28D" stop-opacity="0.54902"/>
<stop offset="0.783" stop-color="#F6BB97" stop-opacity="0.298039"/>
<stop offset="1" stop-color="#F8C6A3" stop-opacity="0.01"/>
</linearGradient>
</defs>
</svg>
